Jessen-Mittel14.ufo
<glyph name="parenleft" format="1">
  <advance width="263"/>
  <unicode hex="0028"/>
  <outline>
    <contour>
      <point x="220" y="-154" type="curve"/>
      <point x="243" y="-135" type="line"/>
      <point x="141" y="-4"/>
      <point x="67" y="148"/>
      <point x="70" y="304" type="curve"/>
      <point x="73" y="424"/>
      <point x="128" y="557"/>
      <point x="235" y="681" type="curve"/>
      <point x="194" y="710" type="line"/>
      <point x="94" y="596"/>
      <point x="30" y="450"/>
      <point x="30" y="304" type="curve"/>
      <point x="30" y="122"/>
      <point x="100" y="-27"/>
    </contour>
  </outline>
</glyph>
<glyph name="comma" format="1">
  <advance width="132"/>
  <unicode hex="002C"/>
  <outline>
    <contour>
      <point x="42" y="-95" type="curve"/>
      <point x="16" y="-99" type="line"/>
      <point x="42" y="-11"/>
      <point x="77" y="63"/>
      <point x="36" y="178" type="curve"/>
      <point x="68" y="197" type="line"/>
      <point x="89" y="171"/>
      <point x="104" y="144"/>
      <point x="116" y="127" type="curve"/>
      <point x="105" y="60"/>
      <point x="77" y="-22"/>
    </contour>
  </outline>
</glyph>
<glyph name="hyphen" format="1">
  <advance width="333"/>
  <unicode hex="002D"/>
  <outline>
    <contour>
      <point x="24" y="264" type="line"/>
      <point x="308" y="320" type="line"/>
      <point x="307" y="278" type="line"/>
      <point x="23" y="225" type="line"/>
    </contour>
    <contour>
      <point x="21" y="180" type="line"/>
      <point x="313" y="235" type="line"/>
      <point x="312" y="195" type="line"/>
      <point x="20" y="143" type="line"/>
    </contour>
  </outline>
</glyph>
<glyph name="period" format="1">
  <advance width="223"/>
  <unicode hex="002E"/>
  <outline>
    <contour>
      <point x="106" y="-9" type="line"/>
      <point x="28" y="75" type="line"/>
      <point x="108" y="148" type="line"/>
      <point x="183" y="66" type="line"/>
    </contour>
  </outline>
</glyph>
<glyph name="one" format="1">
  <advance width="328"/>
  <unicode hex="0031"/>
  <outline>
    <contour>
      <point x="178" y="484" type="curve"/>
      <point x="122" y="456"/>
      <point x="68" y="437"/>
      <point x="4" y="438" type="curve"/>
      <point x="0" y="484" type="line"/>
      <point x="118" y="494"/>
      <point x="200" y="532"/>
      <point x="273" y="602" type="curve"/>
      <point x="288" y="598" type="line"/>
      <point x="268" y="393"/>
      <point x="271" y="194"/>
      <point x="283" y="0" type="curve"/>
      <point x="167" y="0" type="line"/>
      <point x="177" y="146"/>
      <point x="173" y="377"/>
    </contour>
  </outline>
</glyph>
<glyph name="two" format="1">
  <advance width="449"/>
  <unicode hex="0032"/>
  <outline>
    <contour>
      <point x="425" y="-3" type="curve"/>
      <point x="449" y="79" type="line"/>
      <point x="446" y="84" type="line"/>
      <point x="329" y="62"/>
      <point x="221" y="59"/>
      <point x="114" y="59" type="curve"/>
      <point x="164" y="21" type="line"/>
      <point x="225" y="151"/>
      <point x="389" y="357"/>
      <point x="411" y="414" type="curve"/>
      <point x="409" y="528"/>
      <point x="335" y="606"/>
      <point x="229" y="606" type="curve"/>
      <point x="126" y="606"/>
      <point x="57" y="536"/>
      <point x="57" y="436" type="curve"/>
      <point x="57" y="319"/>
      <point x="164" y="262"/>
      <point x="270" y="289" type="curve"/>
      <point x="253" y="307" type="line"/>
      <point x="183" y="211"/>
      <point x="106" y="87"/>
      <point x="30" y="14" type="curve"/>
      <point x="54" y="-4" type="line"/>
      <point x="151" y="-5"/>
      <point x="300" y="5"/>
    </contour>
    <contour>
      <point x="329" y="415" type="curve"/>
      <point x="329" y="364"/>
      <point x="288" y="322"/>
      <point x="235" y="322" type="curve"/>
      <point x="181" y="322"/>
      <point x="131" y="356"/>
      <point x="131" y="415" type="curve"/>
      <point x="131" y="474"/>
      <point x="172" y="519"/>
      <point x="229" y="519" type="curve"/>
      <point x="295" y="519"/>
      <point x="329" y="476"/>
    </contour>
  </outline>
</glyph>
<glyph name="three" format="1">
  <advance width="421"/>
  <unicode hex="0033"/>
  <outline>
    <contour>
      <point x="194" y="293" type="curve"/>
      <point x="210" y="264" type="line"/>
      <point x="284" y="328"/>
      <point x="388" y="363"/>
      <point x="388" y="455" type="curve"/>
      <point x="388" y="545"/>
      <point x="309" y="602"/>
      <point x="209" y="602" type="curve"/>
      <point x="141" y="602"/>
      <point x="52" y="566"/>
      <point x="37" y="483" type="curve"/>
      <point x="64" y="478" type="line"/>
      <point x="82" y="512"/>
      <point x="132" y="535"/>
      <point x="176" y="535" type="curve"/>
      <point x="226" y="535"/>
      <point x="277" y="512"/>
      <point x="277" y="452" type="curve"/>
      <point x="277" y="382"/>
      <point x="223" y="349"/>
      <point x="129" y="294" type="curve"/>
      <point x="134" y="278" type="line"/>
      <point x="210" y="264"/>
      <point x="281" y="221"/>
      <point x="281" y="146" type="curve"/>
      <point x="281" y="101"/>
      <point x="238" y="49"/>
      <point x="178" y="49" type="curve"/>
      <point x="129" y="49"/>
      <point x="100" y="62"/>
      <point x="67" y="99" type="curve"/>
      <point x="27" y="91" type="line"/>
      <point x="65" y="29"/>
      <point x="116" y="-11"/>
      <point x="204" y="-11" type="curve"/>
      <point x="297" y="-11"/>
      <point x="389" y="52"/>
      <point x="389" y="133" type="curve"/>
      <point x="389" y="234"/>
      <point x="279" y="284"/>
    </contour>
  </outline>
</glyph>
<glyph name="four" format="1">
  <advance width="581"/>
  <unicode hex="0034"/>
  <outline>
    <contour>
      <point x="538" y="220" type="line"/>
      <point x="386" y="210" type="line"/>
      <point x="389" y="147" type="line"/>
      <point x="443" y="144"/>
      <point x="490" y="136"/>
      <point x="528" y="134" type="curve"/>
    </contour>
    <contour>
      <point x="298" y="-31" type="curve"/>
      <point x="420" y="0" type="line"/>
      <point x="407" y="201"/>
      <point x="402" y="409"/>
      <point x="404" y="605" type="curve"/>
      <point x="349" y="598" type="line"/>
      <point x="-6" y="181" type="line"/>
      <point x="17" y="171" type="line"/>
      <point x="110" y="171"/>
      <point x="230" y="174"/>
      <point x="314" y="167" type="curve"/>
      <point x="319" y="224" type="line"/>
      <point x="106" y="237" type="line"/>
      <point x="326" y="518" type="line"/>
      <point x="292" y="514" type="line"/>
      <point x="299" y="419"/>
      <point x="311" y="331"/>
      <point x="304" y="219" type="curve"/>
      <point x="303" y="189" type="line"/>
      <point x="297" y="131"/>
      <point x="307" y="32"/>
    </contour>
  </outline>
</glyph>
<glyph name="five" format="1">
  <advance width="382"/>
  <unicode hex="0035"/>
  <outline>
    <contour>
      <point x="73" y="537" type="line"/>
      <point x="332" y="527" type="line"/>
      <point x="391" y="589" type="line"/>
      <point x="392" y="595" type="line"/>
      <point x="292" y="589"/>
      <point x="112" y="582"/>
      <point x="13" y="586" type="curve"/>
      <point x="24" y="487"/>
      <point x="25" y="359"/>
      <point x="17" y="255" type="curve"/>
      <point x="54" y="252" type="line"/>
      <point x="150" y="305"/>
      <point x="255" y="263"/>
      <point x="255" y="166" type="curve"/>
      <point x="255" y="91"/>
      <point x="209" y="41"/>
      <point x="142" y="41" type="curve"/>
      <point x="116" y="41"/>
      <point x="88" y="54"/>
      <point x="64" y="67" type="curve"/>
      <point x="24" y="39" type="line"/>
      <point x="58" y="14"/>
      <point x="103" y="-10"/>
      <point x="166" y="-10" type="curve"/>
      <point x="266" y="-10"/>
      <point x="350" y="70"/>
      <point x="350" y="180" type="curve"/>
      <point x="350" y="311"/>
      <point x="231" y="376"/>
      <point x="79" y="346" type="curve"/>
      <point x="101" y="304" type="line"/>
      <point x="94" y="384"/>
      <point x="105" y="475"/>
      <point x="107" y="555" type="curve"/>
    </contour>
  </outline>
</glyph>
<glyph name="six" format="1">
  <advance width="465"/>
  <unicode hex="0036"/>
  <outline>
    <contour>
      <point x="219" y="-15" type="curve"/>
      <point x="340" y="-15"/>
      <point x="445" y="71"/>
      <point x="445" y="200" type="curve"/>
      <point x="445" y="320"/>
      <point x="347" y="382"/>
      <point x="247" y="382" type="curve"/>
      <point x="215" y="382"/>
      <point x="165" y="371"/>
      <point x="134" y="349" type="curve"/>
      <point x="179" y="437"/>
      <point x="246" y="543"/>
      <point x="301" y="611" type="curve"/>
      <point x="300" y="613" type="line"/>
      <point x="218" y="617" type="line"/>
      <point x="144" y="472"/>
      <point x="25" y="303"/>
      <point x="25" y="171" type="curve"/>
      <point x="25" y="72"/>
      <point x="112" y="-15"/>
    </contour>
    <contour>
      <point x="218" y="338" type="curve"/>
      <point x="289" y="338"/>
      <point x="346" y="286"/>
      <point x="346" y="201" type="curve"/>
      <point x="346" y="112"/>
      <point x="278" y="68"/>
      <point x="214" y="68" type="curve"/>
      <point x="129" y="68"/>
      <point x="94" y="136"/>
      <point x="94" y="201" type="curve"/>
      <point x="94" y="271"/>
      <point x="138" y="338"/>
    </contour>
  </outline>
</glyph>
<glyph name="seven" format="1">
  <advance width="432"/>
  <unicode hex="0037"/>
  <outline>
    <contour>
      <point x="6" y="477" type="curve"/>
      <point x="0" y="482" type="line"/>
      <point x="55" y="590" type="line"/>
      <point x="177" y="582"/>
      <point x="352" y="590"/>
      <point x="428" y="606" type="curve"/>
      <point x="432" y="600" type="line"/>
      <point x="337" y="463"/>
      <point x="235" y="216"/>
      <point x="195" y="0" type="curve"/>
      <point x="107" y="-9" type="line"/>
      <point x="152" y="166"/>
      <point x="246" y="346"/>
      <point x="315" y="487" type="curve"/>
      <point x="234" y="492"/>
      <point x="106" y="485"/>
    </contour>
  </outline>
</glyph>
<glyph name="eight" format="1">
  <advance width="380"/>
  <unicode hex="0038"/>
  <outline>
    <contour>
      <point x="196" y="312" type="curve"/>
      <point x="97" y="312"/>
      <point x="20" y="232"/>
      <point x="20" y="151" type="curve"/>
      <point x="20" y="65"/>
      <point x="88" y="-10"/>
      <point x="193" y="-10" type="curve"/>
      <point x="286" y="-10"/>
      <point x="369" y="60"/>
      <point x="369" y="146" type="curve"/>
      <point x="369" y="237"/>
      <point x="286" y="312"/>
    </contour>
    <contour>
      <point x="178" y="265" type="curve"/>
      <point x="233" y="265"/>
      <point x="285" y="219"/>
      <point x="285" y="164" type="curve"/>
      <point x="285" y="101"/>
      <point x="230" y="66"/>
      <point x="174" y="66" type="curve"/>
      <point x="119" y="66"/>
      <point x="73" y="109"/>
      <point x="73" y="164" type="curve"/>
      <point x="73" y="219"/>
      <point x="123" y="265"/>
    </contour>
    <contour>
      <point x="195" y="297" type="curve"/>
      <point x="291" y="297"/>
      <point x="368" y="371"/>
      <point x="368" y="456" type="curve"/>
      <point x="368" y="525"/>
      <point x="303" y="611"/>
      <point x="201" y="611" type="curve"/>
      <point x="97" y="611"/>
      <point x="20" y="549"/>
      <point x="20" y="450" type="curve"/>
      <point x="20" y="366"/>
      <point x="98" y="297"/>
    </contour>
    <contour>
      <point x="209" y="347" type="curve"/>
      <point x="154" y="347"/>
      <point x="105" y="395"/>
      <point x="105" y="450" type="curve"/>
      <point x="105" y="514"/>
      <point x="158" y="552"/>
      <point x="212" y="552" type="curve"/>
      <point x="277" y="552"/>
      <point x="316" y="500"/>
      <point x="316" y="445" type="curve"/>
      <point x="316" y="390"/>
      <point x="264" y="347"/>
    </contour>
  </outline>
</glyph>
<glyph name="nine" format="1">
  <advance width="420"/>
  <unicode hex="0039"/>
  <outline>
    <contour>
      <point x="237" y="604" type="curve"/>
      <point x="116" y="604"/>
      <point x="11" y="518"/>
      <point x="11" y="389" type="curve"/>
      <point x="11" y="269"/>
      <point x="109" y="207"/>
      <point x="209" y="207" type="curve"/>
      <point x="241" y="207"/>
      <point x="291" y="218"/>
      <point x="322" y="240" type="curve"/>
      <point x="277" y="152"/>
      <point x="212" y="67"/>
      <point x="157" y="-1" type="curve"/>
      <point x="156" y="-4" type="line"/>
      <point x="228" y="-24" type="line"/>
      <point x="302" y="121"/>
      <point x="431" y="286"/>
      <point x="431" y="418" type="curve"/>
      <point x="431" y="517"/>
      <point x="344" y="604"/>
    </contour>
    <contour>
      <point x="238" y="251" type="curve"/>
      <point x="167" y="251"/>
      <point x="110" y="303"/>
      <point x="110" y="388" type="curve"/>
      <point x="110" y="477"/>
      <point x="178" y="521"/>
      <point x="242" y="521" type="curve"/>
      <point x="327" y="521"/>
      <point x="362" y="453"/>
      <point x="362" y="388" type="curve"/>
      <point x="362" y="318"/>
      <point x="318" y="251"/>
    </contour>
  </outline>
</glyph>
<glyph name="A" format="1">
  <advance width="743"/>
  <unicode hex="0041"/>
  <outline>
    <contour>
      <point x="738" y="687" type="line"/>
      <point x="680" y="579" type="line"/>
      <point x="540" y="606"/>
      <point x="443" y="622"/>
      <point x="325" y="627" type="curve"/>
      <point x="232" y="631"/>
      <point x="73" y="664"/>
      <point x="23" y="633" type="curve"/>
      <point x="14" y="647" type="line"/>
      <point x="49" y="711" type="line"/>
      <point x="246" y="698"/>
      <point x="583" y="677"/>
      <point x="729" y="701" type="curve"/>
    </contour>
    <contour>
      <point x="142" y="136" type="curve"/>
      <point x="165" y="200" type="line"/>
      <point x="289" y="180"/>
      <point x="413" y="168"/>
      <point x="537" y="168" type="curve"/>
      <point x="564" y="94" type="line"/>
      <point x="423" y="119"/>
      <point x="283" y="133"/>
    </contour>
    <contour>
      <point x="337" y="639" type="curve"/>
      <point x="405" y="632" type="line"/>
      <point x="503" y="434"/>
      <point x="602" y="227"/>
      <point x="720" y="29" type="curve"/>
      <point x="602" y="-10" type="line"/>
      <point x="346" y="550" type="line"/>
      <point x="241" y="364"/>
      <point x="169" y="178"/>
      <point x="79" y="-8" type="curve"/>
      <point x="5" y="36" type="line"/>
      <point x="133" y="233"/>
      <point x="229" y="442"/>
    </contour>
  </outline>
</glyph>
<glyph name="B" format="1">
  <advance width="574"/>
  <unicode hex="0042"/>
  <outline>
    <contour>
      <point x="54" y="7" type="curve"/>
      <point x="55" y="0" type="line"/>
      <point x="171" y="11"/>
      <point x="278" y="-3"/>
      <point x="394" y="5" type="curve"/>
      <point x="455" y="9"/>
      <point x="535" y="93"/>
      <point x="543" y="216" type="curve"/>
      <point x="469" y="275"/>
      <point x="394" y="320"/>
      <point x="352" y="376" type="curve"/>
      <point x="348" y="347" type="line"/>
      <point x="410" y="394"/>
      <point x="504" y="465"/>
      <point x="544" y="512" type="curve"/>
      <point x="506" y="644"/>
      <point x="420" y="710"/>
      <point x="330" y="710" type="curve"/>
      <point x="263" y="710"/>
      <point x="143" y="690"/>
      <point x="41" y="693" type="curve"/>
      <point x="40" y="685" type="line"/>
      <point x="101" y="653"/>
      <point x="108" y="624"/>
      <point x="108" y="344" type="curve"/>
      <point x="108" y="67"/>
      <point x="82" y="37"/>
    </contour>
    <contour>
      <point x="203" y="59" type="curve"/>
      <point x="199" y="256"/>
      <point x="194" y="458"/>
      <point x="203" y="655" type="curve"/>
      <point x="304" y="677"/>
      <point x="427" y="634"/>
      <point x="427" y="524" type="curve"/>
      <point x="427" y="415"/>
      <point x="319" y="357"/>
      <point x="185" y="377" type="curve"/>
      <point x="184" y="325" type="line"/>
      <point x="333" y="359"/>
      <point x="427" y="277"/>
      <point x="427" y="188" type="curve"/>
      <point x="427" y="53"/>
      <point x="293" y="14"/>
    </contour>
  </outline>
</glyph>
<glyph name="D" format="1">
  <advance width="740"/>
  <unicode hex="0044"/>
  <outline>
    <contour>
      <point x="94" y="634" type="curve"/>
      <point x="53" y="687" type="line"/>
      <point x="53" y="700" type="line"/>
      <point x="106" y="700"/>
      <point x="239" y="701"/>
      <point x="275" y="701" type="curve"/>
      <point x="489" y="701"/>
      <point x="715" y="579"/>
      <point x="715" y="354" type="curve"/>
      <point x="715" y="110"/>
      <point x="513" y="-8"/>
      <point x="287" y="-4" type="curve"/>
      <point x="223" y="-3"/>
      <point x="95" y="-3"/>
      <point x="41" y="-1" type="curve"/>
      <point x="40" y="9" type="line"/>
      <point x="82" y="55" type="line"/>
      <point x="95" y="248"/>
      <point x="99" y="441"/>
    </contour>
    <contour>
      <point x="200" y="654" type="curve"/>
      <point x="198" y="466"/>
      <point x="187" y="213"/>
      <point x="193" y="46" type="curve"/>
      <point x="479" y="0"/>
      <point x="605" y="166"/>
      <point x="605" y="354" type="curve"/>
      <point x="605" y="531"/>
      <point x="458" y="684"/>
    </contour>
    <contour>
      <point x="239" y="20" type="line"/>
      <point x="245" y="684" type="line"/>
      <point x="292" y="684" type="line"/>
      <point x="272" y="19" type="line"/>
    </contour>
  </outline>
</glyph>
<glyph name="F" format="1">
  <advance width="561"/>
  <unicode hex="0046"/>
  <outline>
    <contour>
      <point x="44" y="401" type="line"/>
      <point x="158" y="404" type="line"/>
      <point x="145" y="321" type="line"/>
      <point x="10" y="320" type="line"/>
      <point x="6" y="323" type="line"/>
    </contour>
    <contour>
      <point x="196" y="323" type="curve"/>
      <point x="201" y="399" type="line"/>
      <point x="262" y="395"/>
      <point x="421" y="387"/>
      <point x="506" y="393" type="curve"/>
      <point x="506" y="302" type="line"/>
      <point x="440" y="316"/>
      <point x="267" y="326"/>
    </contour>
    <contour>
      <point x="218" y="425" type="curve"/>
      <point x="218" y="377"/>
      <point x="234" y="77"/>
      <point x="240" y="0" type="curve"/>
      <point x="121" y="0" type="line"/>
      <point x="134" y="183"/>
      <point x="99" y="502"/>
      <point x="157" y="614" type="curve"/>
      <point x="215" y="673"/>
      <point x="335" y="711"/>
      <point x="405" y="711" type="curve"/>
      <point x="460" y="711"/>
      <point x="558" y="646"/>
      <point x="584" y="599" type="curve"/>
      <point x="541" y="530" type="line"/>
      <point x="532" y="533" type="line"/>
      <point x="522" y="629"/>
      <point x="414" y="683"/>
      <point x="294" y="654" type="curve"/>
      <point x="238" y="603"/>
      <point x="218" y="549"/>
    </contour>
  </outline>
</glyph>
<glyph name="G" format="1">
  <advance width="711"/>
  <unicode hex="0047"/>
  <outline>
    <contour>
      <point x="408" y="662" type="curve"/>
      <point x="498" y="662"/>
      <point x="592" y="621"/>
      <point x="692" y="502" type="curve"/>
      <point x="703" y="506" type="line"/>
      <point x="684" y="572"/>
      <point x="674" y="625"/>
      <point x="673" y="667" type="curve"/>
      <point x="601" y="688"/>
      <point x="531" y="710"/>
      <point x="454" y="710" type="curve"/>
      <point x="214" y="710"/>
      <point x="90" y="569"/>
      <point x="30" y="379" type="curve"/>
      <point x="21" y="189"/>
      <point x="154" y="-10"/>
      <point x="350" y="-10" type="curve"/>
      <point x="460" y="-10"/>
      <point x="535" y="49"/>
      <point x="572" y="95" type="curve"/>
      <point x="683" y="47" type="line"/>
      <point x="693" y="49" type="line"/>
      <point x="690" y="100"/>
      <point x="690" y="153"/>
      <point x="691" y="204" type="curve"/>
      <point x="693" y="273"/>
      <point x="704" y="340"/>
      <point x="722" y="409" type="curve"/>
      <point x="724" y="415" type="line"/>
      <point x="545" y="422" type="line"/>
      <point x="544" y="416" type="line"/>
      <point x="572" y="381"/>
      <point x="589" y="348"/>
      <point x="607" y="313" type="curve"/>
      <point x="604" y="156"/>
      <point x="494" y="52"/>
      <point x="391" y="52" type="curve"/>
      <point x="247" y="52"/>
      <point x="151" y="204"/>
      <point x="151" y="364" type="curve"/>
      <point x="151" y="514"/>
      <point x="248" y="662"/>
    </contour>
  </outline>
</glyph>
<glyph name="H" format="1">
  <advance width="669"/>
  <unicode hex="0048"/>
  <outline>
    <contour>
      <point x="176" y="0" type="curve"/>
      <point x="45" y="0" type="line"/>
      <point x="72" y="223"/>
      <point x="63" y="465"/>
      <point x="40" y="700" type="curve"/>
      <point x="176" y="700" type="line"/>
      <point x="158" y="541"/>
      <point x="149" y="159"/>
    </contour>
    <contour>
      <point x="629" y="0" type="curve"/>
      <point x="500" y="0" type="line"/>
      <point x="528" y="199"/>
      <point x="520" y="580"/>
      <point x="505" y="700" type="curve"/>
      <point x="623" y="700" type="line"/>
      <point x="608" y="507"/>
      <point x="610" y="177"/>
    </contour>
    <contour>
      <point x="126" y="325" type="curve"/>
      <point x="126" y="392" type="line"/>
      <point x="263" y="387"/>
      <point x="401" y="390"/>
      <point x="538" y="400" type="curve"/>
      <point x="538" y="325" type="line"/>
      <point x="401" y="345"/>
      <point x="263" y="334"/>
    </contour>
  </outline>
</glyph>
<glyph name="I" format="1">
  <advance width="259"/>
  <unicode hex="0049"/>
  <outline>
    <contour>
      <point x="219" y="3" type="curve"/>
      <point x="218" y="0" type="line"/>
      <point x="41" y="0" type="line"/>
      <point x="40" y="3" type="line"/>
      <point x="52" y="39"/>
      <point x="68" y="87"/>
      <point x="71" y="115" type="curve"/>
      <point x="76" y="165"/>
      <point x="79" y="372"/>
      <point x="79" y="493" type="curve"/>
      <point x="79" y="550"/>
      <point x="71" y="609"/>
      <point x="52" y="697" type="curve"/>
      <point x="53" y="700" type="line"/>
      <point x="205" y="700" type="line"/>
      <point x="206" y="697" type="line"/>
      <point x="202" y="685"/>
      <point x="187" y="632"/>
      <point x="185" y="613" type="curve"/>
      <point x="169" y="465"/>
      <point x="172" y="199"/>
      <point x="185" y="72" type="curve"/>
      <point x="187" y="53"/>
      <point x="209" y="23"/>
    </contour>
  </outline>
</glyph>
<glyph name="J" format="1">
  <advance width="476"/>
  <unicode hex="004A"/>
  <outline>
    <contour>
      <point x="430" y="700" type="curve"/>
      <point x="310" y="700" type="line"/>
      <point x="322" y="599"/>
      <point x="319" y="382"/>
      <point x="319" y="266" type="curve"/>
      <point x="319" y="130"/>
      <point x="271" y="52"/>
      <point x="181" y="52" type="curve"/>
      <point x="122" y="52"/>
      <point x="86" y="72"/>
      <point x="55" y="107" type="curve"/>
      <point x="45" y="101" type="line"/>
      <point x="68" y="12" type="line"/>
      <point x="99" y="-2"/>
      <point x="145" y="-8"/>
      <point x="171" y="-8" type="curve"/>
      <point x="278" y="-8"/>
      <point x="379" y="69"/>
      <point x="422" y="153" type="curve"/>
      <point x="425" y="335"/>
      <point x="413" y="508"/>
    </contour>
  </outline>
</glyph>
<glyph name="K" format="1">
  <advance width="619"/>
  <unicode hex="004B"/>
  <outline>
    <contour>
      <point x="589" y="92" type="curve"/>
      <point x="502" y="-3" type="line"/>
      <point x="162" y="345" type="line"/>
      <point x="218" y="376"/>
      <point x="387" y="595"/>
      <point x="469" y="720" type="curve"/>
      <point x="540" y="657" type="line"/>
      <point x="435" y="573"/>
      <point x="345" y="474"/>
      <point x="255" y="373" type="curve"/>
      <point x="317" y="321"/>
      <point x="590" y="92"/>
    </contour>
    <contour>
      <point x="200" y="5" type="curve"/>
      <point x="41" y="5" type="line"/>
      <point x="40" y="9" type="line"/>
      <point x="86" y="120"/>
      <point x="97" y="587"/>
      <point x="58" y="700" type="curve"/>
      <point x="207" y="700" type="line"/>
      <point x="172" y="396"/>
      <point x="169" y="173"/>
    </contour>
  </outline>
</glyph>
<glyph name="M" format="1">
  <advance width="869"/>
  <unicode hex="004D"/>
  <outline>
    <contour>
      <point x="795" y="677" type="line"/>
      <point x="776" y="635" type="line"/>
      <point x="772" y="528"/>
      <point x="828" y="125"/>
      <point x="849" y="0" type="curve"/>
      <point x="729" y="0" type="line"/>
      <point x="717" y="142"/>
      <point x="686" y="325"/>
      <point x="677" y="470" type="curve"/>
      <point x="439" y="4" type="line"/>
      <point x="433" y="4" type="line"/>
      <point x="372" y="145"/>
      <point x="271" y="323"/>
      <point x="143" y="501" type="curve"/>
      <point x="122" y="323"/>
      <point x="122" y="134"/>
      <point x="130" y="12" type="curve"/>
      <point x="129" y="0" type="line"/>
      <point x="21" y="0" type="line"/>
      <point x="20" y="10" type="line"/>
      <point x="64" y="140"/>
      <point x="94" y="486"/>
      <point x="116" y="629" type="curve"/>
      <point x="74" y="689" type="line"/>
      <point x="77" y="710" type="line"/>
      <point x="175" y="707" type="line"/>
      <point x="195" y="637"/>
      <point x="405" y="289"/>
      <point x="472" y="186" type="curve"/>
      <point x="564" y="353"/>
      <point x="707" y="635"/>
      <point x="732" y="691" type="curve"/>
    </contour>
  </outline>
</glyph>
<glyph name="N" format="1">
  <advance width="756"/>
  <unicode hex="004E"/>
  <outline>
    <contour>
      <point x="89" y="597" type="curve"/>
      <point x="93" y="395"/>
      <point x="87" y="120"/>
      <point x="61" y="0" type="curve"/>
      <point x="170" y="0" type="line"/>
      <point x="140" y="123"/>
      <point x="154" y="406"/>
      <point x="146" y="609" type="curve"/>
      <point x="142" y="587" type="line"/>
      <point x="336" y="354"/>
      <point x="640" y="49"/>
      <point x="652" y="-10" type="curve"/>
      <point x="707" y="-10" type="line"/>
      <point x="688" y="192"/>
      <point x="687" y="618"/>
      <point x="716" y="690" type="curve"/>
      <point x="597" y="690" type="line"/>
      <point x="618" y="604"/>
      <point x="640" y="406"/>
      <point x="637" y="149" type="curve"/>
      <point x="654" y="189" type="line"/>
      <point x="513" y="347"/>
      <point x="337" y="530"/>
      <point x="204" y="700" type="curve"/>
      <point x="30" y="700" type="line"/>
      <point x="30" y="684" type="line"/>
      <point x="47" y="673"/>
      <point x="89" y="627"/>
    </contour>
  </outline>
</glyph>
<glyph name="P" format="1">
  <advance width="534"/>
  <unicode hex="0050"/>
  <outline>
    <contour>
      <point x="200" y="0" type="line"/>
      <point x="201" y="3" type="line"/>
      <point x="177" y="155"/>
      <point x="174" y="501"/>
      <point x="189" y="660" type="curve"/>
      <point x="333" y="676"/>
      <point x="405" y="597"/>
      <point x="405" y="520" type="curve"/>
      <point x="405" y="392"/>
      <point x="289" y="337"/>
      <point x="163" y="361" type="curve"/>
      <point x="162" y="313" type="line"/>
      <point x="340" y="307"/>
      <point x="452" y="341"/>
      <point x="513" y="456" type="curve"/>
      <point x="523" y="607"/>
      <point x="404" y="706"/>
      <point x="209" y="706" type="curve"/>
      <point x="158" y="706"/>
      <point x="89" y="705"/>
      <point x="30" y="703" type="curve"/>
      <point x="30" y="693" type="line"/>
      <point x="80" y="647" type="line"/>
      <point x="91" y="485"/>
      <point x="90" y="198"/>
      <point x="69" y="3" type="curve"/>
      <point x="70" y="0" type="line"/>
    </contour>
  </outline>
</glyph>
<glyph name="Q" format="1">
  <advance width="845"/>
  <unicode hex="0051"/>
  <outline>
    <contour>
      <point x="644" y="197" type="curve"/>
      <point x="563" y="110" type="line"/>
      <point x="621" y="62"/>
      <point x="680" y="11"/>
      <point x="738" y="-43" type="curve"/>
      <point x="843" y="-54" type="line"/>
      <point x="845" y="-43" type="line"/>
      <point x="778" y="36"/>
      <point x="711" y="104"/>
    </contour>
    <contour>
      <point x="153" y="606" type="curve"/>
      <point x="104" y="560"/>
      <point x="25" y="442"/>
      <point x="25" y="312" type="curve"/>
      <point x="25" y="144"/>
      <point x="104" y="48"/>
      <point x="288" y="-10" type="curve"/>
      <point x="352" y="-10"/>
      <point x="431" y="15"/>
      <point x="478" y="28" type="curve"/>
      <point x="548" y="90"/>
      <point x="738" y="223"/>
      <point x="738" y="430" type="curve"/>
      <point x="694" y="584"/>
      <point x="585" y="710"/>
      <point x="410" y="710" type="curve"/>
      <point x="292" y="710"/>
      <point x="218" y="668"/>
    </contour>
    <contour>
      <point x="93" y="363" type="curve"/>
      <point x="93" y="523"/>
      <point x="206" y="620"/>
      <point x="366" y="620" type="curve"/>
      <point x="524" y="620"/>
      <point x="640" y="510"/>
      <point x="640" y="350" type="curve"/>
      <point x="640" y="200"/>
      <point x="529" y="90"/>
      <point x="372" y="90" type="curve"/>
      <point x="212" y="90"/>
      <point x="93" y="203"/>
    </contour>
  </outline>
</glyph>
<glyph name="R" format="1">
  <advance width="573"/>
  <unicode hex="0052"/>
  <outline>
    <contour>
      <point x="193" y="0" type="line"/>
      <point x="194" y="3" type="line"/>
      <point x="194" y="77"/>
      <point x="186" y="419"/>
      <point x="184" y="626" type="curve"/>
      <point x="197" y="653"/>
      <point x="232" y="665"/>
      <point x="267" y="665" type="curve"/>
      <point x="375" y="665"/>
      <point x="436" y="586"/>
      <point x="436" y="495" type="curve"/>
      <point x="436" y="380"/>
      <point x="293" y="323"/>
      <point x="179" y="377" type="curve"/>
      <point x="178" y="326" type="line"/>
      <point x="212" y="321"/>
      <point x="282" y="314"/>
      <point x="320" y="328" type="curve"/>
      <point x="382" y="354"/>
      <point x="504" y="376"/>
      <point x="535" y="478" type="curve"/>
      <point x="528" y="631"/>
      <point x="388" y="710"/>
      <point x="273" y="710" type="curve"/>
      <point x="215" y="710"/>
      <point x="108" y="698"/>
      <point x="40" y="696" type="curve"/>
      <point x="40" y="684" type="line"/>
      <point x="68" y="672"/>
      <point x="82" y="650"/>
      <point x="83" y="616" type="curve"/>
      <point x="88" y="498"/>
      <point x="100" y="281"/>
      <point x="93" y="95" type="curve"/>
      <point x="92" y="67"/>
      <point x="81" y="37"/>
      <point x="63" y="17" type="curve"/>
      <point x="63" y="3" type="line"/>
    </contour>
    <contour>
      <point x="312" y="343" type="curve"/>
      <point x="191" y="334" type="line"/>
      <point x="413" y="49" type="line"/>
      <point x="455" y="23"/>
      <point x="500" y="3"/>
      <point x="550" y="-13" type="curve"/>
      <point x="563" y="0" type="line"/>
      <point x="518" y="36"/>
      <point x="382" y="211"/>
    </contour>
  </outline>
</glyph>
<glyph name="T" format="1">
  <advance width="634"/>
  <unicode hex="0054"/>
  <outline>
    <contour>
      <point x="10" y="701" type="curve"/>
      <point x="14" y="606" type="line"/>
      <point x="203" y="635"/>
      <point x="391" y="630"/>
      <point x="598" y="601" type="curve"/>
      <point x="624" y="696" type="line"/>
      <point x="452" y="681"/>
      <point x="217" y="683"/>
    </contour>
    <contour>
      <point x="244" y="0" type="line"/>
      <point x="382" y="0" type="line"/>
      <point x="383" y="3" type="line"/>
      <point x="366" y="99"/>
      <point x="361" y="547"/>
      <point x="373" y="674" type="curve"/>
      <point x="255" y="674" type="line"/>
      <point x="266" y="587"/>
      <point x="264" y="121"/>
      <point x="243" y="3" type="curve"/>
    </contour>
  </outline>
</glyph>
<glyph name="U" format="1">
  <advance width="700"/>
  <unicode hex="0055"/>
  <outline>
    <contour>
      <point x="660" y="10" type="curve"/>
      <point x="659" y="0" type="line"/>
      <point x="491" y="0" type="line"/>
      <point x="489" y="186"/>
      <point x="487" y="404"/>
      <point x="487" y="619" type="curve"/>
      <point x="487" y="643"/>
      <point x="469" y="680"/>
      <point x="460" y="694" type="curve"/>
      <point x="460" y="700" type="line"/>
      <point x="619" y="700" type="line"/>
      <point x="619" y="694" type="line"/>
      <point x="612" y="681"/>
      <point x="599" y="660"/>
      <point x="598" y="644" type="curve"/>
      <point x="588" y="474"/>
      <point x="586" y="235"/>
      <point x="602" y="84" type="curve"/>
      <point x="606" y="41"/>
      <point x="641" y="22"/>
    </contour>
    <contour>
      <point x="490" y="318" type="curve"/>
      <point x="497" y="182" type="line"/>
      <point x="467" y="121"/>
      <point x="381" y="64"/>
      <point x="249" y="-11" type="curve"/>
      <point x="162" y="23"/>
      <point x="98" y="66"/>
      <point x="64" y="142" type="curve"/>
      <point x="81" y="278"/>
      <point x="82" y="484"/>
      <point x="74" y="579" type="curve"/>
      <point x="71" y="618"/>
      <point x="58" y="639"/>
      <point x="41" y="670" type="curve"/>
      <point x="40" y="678" type="line"/>
      <point x="201" y="690" type="line"/>
      <point x="202" y="682" type="line"/>
      <point x="170" y="596"/>
      <point x="159" y="407"/>
      <point x="159" y="305" type="curve"/>
      <point x="159" y="165"/>
      <point x="194" y="85"/>
      <point x="283" y="85" type="curve"/>
      <point x="353" y="85"/>
      <point x="470" y="145"/>
    </contour>
  </outline>
</glyph>
<glyph name="V" format="1">
  <advance width="760"/>
  <unicode hex="0056"/>
  <outline>
    <contour>
      <point x="403" y="171" type="curve"/>
      <point x="557" y="576" type="line" smooth="yes"/>
      <point x="575" y="624"/>
      <point x="579" y="652"/>
      <point x="577" y="700" type="curve"/>
      <point x="750" y="702" type="line"/>
      <point x="750" y="689" type="line"/>
      <point x="713" y="672"/>
      <point x="699" y="666"/>
      <point x="669" y="619" type="curve"/>
      <point x="550" y="433"/>
      <point x="450" y="169"/>
      <point x="386" y="-10" type="curve"/>
      <point x="356" y="-10" type="line"/>
      <point x="310" y="148"/>
      <point x="195" y="374"/>
      <point x="120" y="526" type="curve"/>
      <point x="77" y="612"/>
      <point x="46" y="647"/>
      <point x="5" y="691" type="curve"/>
      <point x="5" y="700" type="line"/>
      <point x="168" y="700" type="line"/>
      <point x="232" y="563"/>
      <point x="347" y="284"/>
    </contour>
  </outline>
</glyph>
<glyph name="W" format="1">
  <advance width="981"/>
  <unicode hex="0057"/>
  <outline>
    <contour>
      <point x="971" y="701" type="line"/>
      <point x="848" y="699" type="line"/>
      <point x="850" y="651"/>
      <point x="836" y="598"/>
      <point x="824" y="543" type="curve"/>
      <point x="725" y="108" type="line"/>
      <point x="750" y="141" type="line"/>
      <point x="705" y="252"/>
      <point x="578" y="480"/>
      <point x="541" y="658" type="curve"/>
      <point x="518" y="660" type="line"/>
      <point x="503" y="601" type="line"/>
      <point x="469" y="487"/>
      <point x="363" y="310"/>
      <point x="271" y="140" type="curve"/>
      <point x="304" y="159" type="line"/>
      <point x="265" y="278"/>
      <point x="219" y="520"/>
      <point x="181" y="707" type="curve"/>
      <point x="10" y="697" type="line"/>
      <point x="10" y="688" type="line"/>
      <point x="37" y="656"/>
      <point x="74" y="614"/>
      <point x="98" y="526" type="curve"/>
      <point x="146" y="348"/>
      <point x="186" y="147"/>
      <point x="213" y="-11" type="curve"/>
      <point x="243" y="-11" type="line"/>
      <point x="314" y="138"/>
      <point x="435" y="334"/>
      <point x="514" y="461" type="curve"/>
      <point x="487" y="472" type="line"/>
      <point x="584" y="271"/>
      <point x="641" y="152"/>
      <point x="702" y="-20" type="curve"/>
      <point x="732" y="-20" type="line"/>
      <point x="796" y="169"/>
      <point x="824" y="330"/>
      <point x="902" y="575" type="curve"/>
      <point x="919" y="627"/>
      <point x="934" y="675"/>
      <point x="971" y="693" type="curve"/>
    </contour>
  </outline>
</glyph>
<glyph name="X" format="1">
  <advance width="633"/>
  <unicode hex="0058"/>
  <outline>
    <contour>
      <point x="24" y="701" type="line"/>
      <point x="205" y="705" type="line"/>
      <point x="241" y="588"/>
      <point x="326" y="415"/>
      <point x="357" y="355" type="curve"/>
      <point x="458" y="162"/>
      <point x="489" y="88"/>
      <point x="608" y="11" type="curve"/>
      <point x="607" y="2" type="line"/>
      <point x="419" y="-2" type="line"/>
      <point x="412" y="72"/>
      <point x="150" y="604"/>
      <point x="25" y="691" type="curve"/>
    </contour>
    <contour>
      <point x="343" y="328" type="curve"/>
      <point x="309" y="364" type="line"/>
      <point x="395" y="474"/>
      <point x="501" y="634"/>
      <point x="508" y="700" type="curve"/>
      <point x="628" y="703" type="line"/>
      <point x="627" y="694" type="line"/>
      <point x="540" y="610"/>
      <point x="442" y="470"/>
    </contour>
    <contour>
      <point x="149" y="3" type="curve"/>
      <point x="7" y="-4" type="line"/>
      <point x="5" y="3" type="line"/>
      <point x="64" y="50"/>
      <point x="101" y="82"/>
      <point x="140" y="134" type="curve"/>
      <point x="290" y="337" type="line"/>
      <point x="318" y="300" type="line"/>
      <point x="274" y="241"/>
      <point x="189" y="101"/>
    </contour>
  </outline>
</glyph>
<glyph name="Z" format="1">
  <advance width="660"/>
  <unicode hex="005A"/>
  <outline>
    <contour>
      <point x="444" y="601" type="line"/>
      <point x="459" y="600" type="line"/>
      <point x="331" y="605"/>
      <point x="85" y="606"/>
      <point x="25" y="585" type="curve"/>
      <point x="15" y="591" type="line"/>
      <point x="70" y="716" type="line"/>
      <point x="263" y="695"/>
      <point x="521" y="702"/>
      <point x="626" y="720" type="curve"/>
      <point x="637" y="710" type="line"/>
      <point x="488" y="559"/>
      <point x="312" y="304"/>
      <point x="166" y="105" type="curve"/>
      <point x="293" y="101"/>
      <point x="574" y="100"/>
      <point x="643" y="127" type="curve"/>
      <point x="650" y="124" type="line"/>
      <point x="607" y="-51" type="line"/>
      <point x="597" y="-51" type="line"/>
      <point x="570" y="-19"/>
      <point x="551" y="-2"/>
      <point x="509" y="0" type="curve"/>
      <point x="332" y="7"/>
      <point x="112" y="8"/>
      <point x="25" y="-29" type="curve"/>
      <point x="10" y="-17" type="line"/>
    </contour>
  </outline>
</glyph>
<glyph name="b" format="1">
  <advance width="453"/>
  <unicode hex="0062"/>
  <outline>
    <contour>
      <point x="121" y="398" type="curve"/>
      <point x="115" y="367" type="line"/>
      <point x="189" y="378"/>
      <point x="254" y="361"/>
      <point x="316" y="339" type="curve"/>
      <point x="324" y="252"/>
      <point x="325" y="176"/>
      <point x="317" y="79" type="curve"/>
      <point x="246" y="87"/>
      <point x="180" y="101"/>
      <point x="139" y="123" type="curve"/>
      <point x="138" y="328"/>
      <point x="144" y="596"/>
      <point x="180" y="712" type="curve"/>
      <point x="165" y="718" type="line"/>
      <point x="130" y="673"/>
      <point x="84" y="648"/>
      <point x="27" y="660" type="curve"/>
      <point x="25" y="643" type="line"/>
      <point x="82" y="626"/>
      <point x="56" y="156"/>
      <point x="46" y="69" type="curve"/>
      <point x="96" y="53"/>
      <point x="206" y="8"/>
      <point x="254" y="-10" type="curve"/>
      <point x="413" y="98" type="line"/>
      <point x="397" y="130"/>
      <point x="394" y="330"/>
      <point x="402" y="395" type="curve"/>
      <point x="360" y="412"/>
      <point x="302" y="444"/>
      <point x="274" y="472" type="curve"/>
      <point x="224" y="438"/>
      <point x="179" y="416"/>
    </contour>
  </outline>
</glyph>
<glyph name="c" format="1">
  <advance width="293"/>
  <unicode hex="0063"/>
  <outline>
    <contour>
      <point x="40" y="390" type="curve"/>
      <point x="91" y="414"/>
      <point x="133" y="440"/>
      <point x="162" y="462" type="curve"/>
      <point x="187" y="459"/>
      <point x="248" y="446"/>
      <point x="283" y="442" type="curve"/>
      <point x="282" y="352" type="line"/>
      <point x="230" y="372"/>
      <point x="193" y="394"/>
      <point x="144" y="407" type="curve"/>
      <point x="126" y="358"/>
      <point x="112" y="168"/>
      <point x="139" y="73" type="curve"/>
      <point x="274" y="41" type="line"/>
      <point x="235" y="-32" type="line"/>
      <point x="204" y="-19"/>
      <point x="118" y="10"/>
      <point x="49" y="25" type="curve"/>
      <point x="45" y="145"/>
      <point x="44" y="258"/>
    </contour>
  </outline>
</glyph>
<glyph name="d" format="1">
  <advance width="461"/>
  <unicode hex="0064"/>
  <outline>
    <contour>
      <point x="129" y="640" type="curve"/>
      <point x="40" y="585" type="line"/>
      <point x="80" y="542"/>
      <point x="280" y="410"/>
      <point x="336" y="370" type="curve"/>
      <point x="339" y="270"/>
      <point x="337" y="181"/>
      <point x="322" y="81" type="curve"/>
      <point x="274" y="85"/>
      <point x="184" y="96"/>
      <point x="143" y="119" type="curve"/>
      <point x="137" y="176"/>
      <point x="140" y="317"/>
      <point x="158" y="393" type="curve"/>
      <point x="184" y="414"/>
      <point x="238" y="449"/>
      <point x="255" y="464" type="curve"/>
      <point x="225" y="479" type="line"/>
      <point x="177" y="453"/>
      <point x="122" y="420"/>
      <point x="64" y="394" type="curve"/>
      <point x="61" y="306"/>
      <point x="68" y="116"/>
      <point x="60" y="68" type="curve"/>
      <point x="110" y="45"/>
      <point x="232" y="6"/>
      <point x="280" y="-10" type="curve"/>
      <point x="338" y="40"/>
      <point x="375" y="67"/>
      <point x="415" y="109" type="curve"/>
      <point x="412" y="217"/>
      <point x="417" y="309"/>
      <point x="421" y="417" type="curve"/>
      <point x="302" y="490"/>
      <point x="226" y="558"/>
    </contour>
  </outline>
</glyph>
<glyph name="e" format="1">
  <advance width="341"/>
  <unicode hex="0065"/>
  <outline>
    <contour>
      <point x="336" y="321" type="line"/>
      <point x="94" y="159" type="line"/>
      <point x="87" y="206" type="line"/>
      <point x="252" y="296" type="line"/>
      <point x="125" y="402" type="line"/>
      <point x="116" y="375"/>
      <point x="114" y="309"/>
      <point x="114" y="201" type="curve"/>
      <point x="114" y="93"/>
      <point x="149" y="87"/>
      <point x="276" y="51" type="curve"/>
      <point x="279" y="43" type="line"/>
      <point x="196" y="-21" type="line"/>
      <point x="31" y="70" type="line"/>
      <point x="39" y="136"/>
      <point x="43" y="303"/>
      <point x="30" y="402" type="curve"/>
      <point x="175" y="471" type="line"/>
      <point x="336" y="331" type="line"/>
    </contour>
  </outline>
</glyph>
<glyph name="f" format="1">
  <advance width="240"/>
  <unicode hex="0066"/>
  <outline>
    <contour>
      <point x="9" y="357" type="line"/>
      <point x="56" y="454" type="line"/>
      <point x="54" y="350" type="line"/>
      <point x="10" y="350" type="line"/>
    </contour>
    <contour>
      <point x="221" y="350" type="line"/>
      <point x="108" y="350" type="line"/>
      <point x="109" y="430" type="line"/>
      <point x="221" y="430" type="line"/>
    </contour>
    <contour>
      <point x="131" y="632" type="curve"/>
      <point x="123" y="582"/>
      <point x="118" y="185"/>
      <point x="118" y="97" type="curve"/>
      <point x="171" y="74" type="line"/>
      <point x="112" y="-10" type="line"/>
      <point x="84" y="12"/>
      <point x="61" y="27"/>
      <point x="26" y="44" type="curve"/>
      <point x="54" y="123"/>
      <point x="53" y="614"/>
      <point x="31" y="636" type="curve"/>
      <point x="147" y="711" type="line"/>
      <point x="182" y="701"/>
      <point x="212" y="688"/>
      <point x="250" y="674" type="curve"/>
      <point x="220" y="597" type="line"/>
      <point x="195" y="610"/>
      <point x="160" y="622"/>
    </contour>
  </outline>
</glyph>
<glyph name="g" format="1">
  <advance width="429"/>
  <unicode hex="0067"/>
  <outline>
    <contour>
      <point x="299" y="58" type="curve"/>
      <point x="300" y="37" type="line"/>
      <point x="252" y="30"/>
      <point x="206" y="2"/>
      <point x="160" y="-33" type="curve"/>
      <point x="131" y="1"/>
      <point x="81" y="25"/>
      <point x="40" y="36" type="curve"/>
      <point x="51" y="134"/>
      <point x="54" y="232"/>
      <point x="47" y="327" type="curve"/>
      <point x="168" y="465" type="line"/>
      <point x="261" y="434"/>
      <point x="326" y="413"/>
      <point x="399" y="379" type="curve"/>
      <point x="379" y="311"/>
      <point x="376" y="-24"/>
      <point x="387" y="-122" type="curve"/>
      <point x="327" y="-157"/>
      <point x="291" y="-188"/>
      <point x="229" y="-230" type="curve"/>
      <point x="195" y="-205"/>
      <point x="107" y="-155"/>
      <point x="48" y="-124" type="curve"/>
      <point x="48" y="-120" type="line"/>
      <point x="160" y="-31" type="line"/>
      <point x="170" y="-38" type="line"/>
      <point x="142" y="-78" type="line"/>
      <point x="179" y="-100"/>
      <point x="228" y="-130"/>
      <point x="275" y="-144" type="curve"/>
      <point x="313" y="-97"/>
      <point x="296" y="-9"/>
      <point x="296" y="51" type="curve"/>
      <point x="296" y="148"/>
      <point x="301" y="245"/>
      <point x="303" y="342" type="curve"/>
      <point x="271" y="356"/>
      <point x="192" y="382"/>
      <point x="137" y="382" type="curve"/>
      <point x="128" y="82" type="line"/>
      <point x="171" y="48"/>
      <point x="246" y="42"/>
    </contour>
  </outline>
</glyph>
<glyph name="h" format="1">
  <advance width="432"/>
  <unicode hex="0068"/>
  <outline>
    <contour>
      <point x="136" y="108" type="curve"/>
      <point x="126" y="170"/>
      <point x="138" y="529"/>
      <point x="157" y="713" type="curve"/>
      <point x="148" y="719" type="line"/>
      <point x="40" y="633" type="line"/>
      <point x="60" y="452"/>
      <point x="60" y="241"/>
      <point x="49" y="60" type="curve"/>
      <point x="130" y="-11" type="line"/>
      <point x="213" y="63" type="line"/>
      <point x="213" y="72" type="line"/>
      <point x="186" y="79"/>
      <point x="151" y="90"/>
    </contour>
    <contour>
      <point x="112" y="404" type="curve"/>
      <point x="129" y="392" type="line"/>
      <point x="202" y="383"/>
      <point x="264" y="372"/>
      <point x="308" y="347" type="curve"/>
      <point x="306" y="179"/>
      <point x="327" y="95"/>
      <point x="271" y="-77" type="curve"/>
      <point x="281" y="-84" type="line"/>
      <point x="343" y="-12"/>
      <point x="353" y="24"/>
      <point x="392" y="75" type="curve"/>
      <point x="380" y="194"/>
      <point x="385" y="308"/>
      <point x="389" y="399" type="curve"/>
      <point x="343" y="430"/>
      <point x="291" y="450"/>
      <point x="254" y="476" type="curve"/>
      <point x="213" y="445"/>
      <point x="168" y="417"/>
    </contour>
  </outline>
</glyph>
<glyph name="j" format="1">
  <advance width="239"/>
  <unicode hex="006A"/>
  <outline>
    <contour>
      <point x="197" y="386" type="curve"/>
      <point x="164" y="413"/>
      <point x="134" y="441"/>
      <point x="101" y="470" type="curve"/>
      <point x="95" y="470" type="line"/>
      <point x="48" y="392" type="line"/>
      <point x="49" y="385" type="line"/>
      <point x="69" y="373"/>
      <point x="87" y="363"/>
      <point x="100" y="348" type="curve"/>
      <point x="110" y="133"/>
      <point x="104" y="45"/>
      <point x="48" y="-96" type="curve"/>
      <point x="59" y="-105" type="line"/>
      <point x="112" y="-57"/>
      <point x="150" y="-29"/>
      <point x="179" y="21" type="curve"/>
      <point x="174" y="155"/>
      <point x="179" y="348"/>
    </contour>
    <contour>
      <point x="190" y="573" type="line"/>
      <point x="38" y="485" type="line"/>
      <point x="38" y="507" type="line"/>
      <point x="192" y="628" type="line"/>
      <point x="199" y="627" type="line"/>
    </contour>
  </outline>
</glyph>
<glyph name="k" format="1">
  <advance width="448"/>
  <unicode hex="006B"/>
  <outline>
    <contour>
      <point x="141" y="106" type="curve"/>
      <point x="128" y="268"/>
      <point x="144" y="588"/>
      <point x="158" y="697" type="curve"/>
      <point x="149" y="710" type="line"/>
      <point x="40" y="630" type="line"/>
      <point x="70" y="572"/>
      <point x="63" y="90"/>
      <point x="56" y="55" type="curve"/>
      <point x="84" y="35"/>
      <point x="110" y="17"/>
      <point x="128" y="-13" type="curve"/>
      <point x="195" y="57" type="line"/>
      <point x="194" y="60" type="line"/>
      <point x="158" y="72"/>
      <point x="150" y="90"/>
    </contour>
    <contour>
      <point x="292" y="294" type="curve"/>
      <point x="322" y="293" type="line"/>
      <point x="332" y="330"/>
      <point x="361" y="367"/>
      <point x="377" y="388" type="curve"/>
      <point x="340" y="432"/>
      <point x="305" y="446"/>
      <point x="257" y="479" type="curve"/>
      <point x="223" y="462"/>
      <point x="178" y="435"/>
      <point x="130" y="425" type="curve"/>
      <point x="136" y="321" type="line"/>
      <point x="143" y="377"/>
      <point x="155" y="394"/>
      <point x="163" y="410" type="curve"/>
      <point x="282" y="380"/>
      <point x="330" y="366"/>
    </contour>
    <contour>
      <point x="323" y="296" type="curve"/>
      <point x="303" y="304" type="line"/>
      <point x="276" y="289"/>
      <point x="188" y="248"/>
      <point x="116" y="258" type="curve"/>
      <point x="131" y="214" type="line"/>
      <point x="224" y="248"/>
      <point x="282" y="231"/>
      <point x="307" y="212" type="curve"/>
      <point x="307" y="175"/>
      <point x="308" y="110"/>
      <point x="292" y="62" type="curve"/>
      <point x="356" y="-27" type="line"/>
      <point x="418" y="17" type="line"/>
      <point x="391" y="60"/>
      <point x="388" y="66"/>
      <point x="382" y="103" type="curve"/>
      <point x="382" y="153"/>
      <point x="384" y="213"/>
      <point x="402" y="248" type="curve"/>
      <point x="379" y="261"/>
      <point x="331" y="293"/>
    </contour>
  </outline>
</glyph>
<glyph name="l" format="1">
  <advance width="219"/>
  <unicode hex="006C"/>
  <outline>
    <contour>
      <point x="157" y="700" type="curve"/>
      <point x="150" y="707" type="line"/>
      <point x="45" y="633" type="line"/>
      <point x="54" y="535"/>
      <point x="62" y="246"/>
      <point x="53" y="52" type="curve"/>
      <point x="73" y="38"/>
      <point x="93" y="10"/>
      <point x="113" y="-18" type="curve"/>
      <point x="194" y="44" type="line"/>
      <point x="194" y="49" type="line"/>
      <point x="165" y="64"/>
      <point x="142" y="96"/>
      <point x="133" y="117" type="curve"/>
      <point x="133" y="237"/>
      <point x="137" y="565"/>
    </contour>
  </outline>
</glyph>
<glyph name="m" format="1">
  <advance width="637"/>
  <unicode hex="006D"/>
  <outline>
    <contour>
      <point x="378" y="397" type="curve"/>
      <point x="369" y="379" type="line"/>
      <point x="423" y="372"/>
      <point x="467" y="359"/>
      <point x="513" y="339" type="curve"/>
      <point x="514" y="257"/>
      <point x="505" y="78"/>
      <point x="486" y="49" type="curve"/>
      <point x="554" y="-16" type="line"/>
      <point x="622" y="61" type="line"/>
      <point x="608" y="73"/>
      <point x="595" y="87"/>
      <point x="583" y="105" type="curve"/>
      <point x="579" y="196"/>
      <point x="592" y="367"/>
      <point x="597" y="404" type="curve"/>
      <point x="568" y="426"/>
      <point x="530" y="444"/>
      <point x="487" y="466" type="curve"/>
      <point x="451" y="439"/>
      <point x="420" y="412"/>
    </contour>
    <contour>
      <point x="145" y="383" type="curve"/>
      <point x="142" y="374" type="line"/>
      <point x="191" y="374"/>
      <point x="241" y="356"/>
      <point x="282" y="340" type="curve"/>
      <point x="282" y="231"/>
      <point x="286" y="72"/>
      <point x="259" y="49" type="curve"/>
      <point x="337" y="-19" type="line"/>
      <point x="405" y="60" type="line"/>
      <point x="386" y="77"/>
      <point x="371" y="89"/>
      <point x="362" y="104" type="curve"/>
      <point x="356" y="179"/>
      <point x="360" y="335"/>
      <point x="376" y="376" type="curve"/>
      <point x="386" y="394" type="line"/>
      <point x="341" y="424"/>
      <point x="312" y="443"/>
      <point x="274" y="467" type="curve"/>
      <point x="240" y="433"/>
      <point x="183" y="402"/>
    </contour>
    <contour>
      <point x="144" y="90" type="curve"/>
      <point x="153" y="378" type="line"/>
      <point x="183" y="400" type="line"/>
      <point x="155" y="419"/>
      <point x="123" y="446"/>
      <point x="100" y="474" type="curve"/>
      <point x="97" y="474" type="line"/>
      <point x="70" y="443"/>
      <point x="47" y="412"/>
      <point x="15" y="373" type="curve"/>
      <point x="15" y="370" type="line"/>
      <point x="36" y="357"/>
      <point x="50" y="345"/>
      <point x="62" y="334" type="curve"/>
      <point x="65" y="259"/>
      <point x="61" y="109"/>
      <point x="52" y="34" type="curve"/>
      <point x="122" y="-16" type="line"/>
      <point x="186" y="47" type="line"/>
      <point x="169" y="61"/>
      <point x="154" y="75"/>
    </contour>
  </outline>
</glyph>
<glyph name="p" format="1">
  <advance width="478"/>
  <unicode hex="0070"/>
  <outline>
    <contour>
      <point x="155" y="-144" type="curve"/>
      <point x="152" y="25"/>
      <point x="155" y="205"/>
      <point x="162" y="374" type="curve"/>
      <point x="183" y="386" type="line"/>
      <point x="152" y="400"/>
      <point x="121" y="419"/>
      <point x="90" y="445" type="curve"/>
      <point x="10" y="387" type="line"/>
      <point x="10" y="373" type="line"/>
      <point x="31" y="370"/>
      <point x="50" y="362"/>
      <point x="73" y="347" type="curve"/>
      <point x="73" y="227"/>
      <point x="88" y="-78"/>
      <point x="41" y="-157" type="curve"/>
      <point x="44" y="-160" type="line"/>
      <point x="89" y="-151"/>
      <point x="120" y="-144"/>
    </contour>
    <contour>
      <point x="319" y="44" type="curve"/>
      <point x="141" y="82" type="line"/>
      <point x="140" y="0" type="line"/>
      <point x="153" y="8"/>
      <point x="161" y="7"/>
      <point x="174" y="8" type="curve"/>
      <point x="228" y="-5"/>
      <point x="273" y="-18"/>
      <point x="301" y="-26" type="curve"/>
      <point x="335" y="-8"/>
      <point x="374" y="8"/>
      <point x="408" y="17" type="curve"/>
      <point x="403" y="125"/>
      <point x="394" y="258"/>
      <point x="416" y="388" type="curve"/>
      <point x="368" y="397"/>
      <point x="296" y="423"/>
      <point x="241" y="461" type="curve"/>
      <point x="210" y="424"/>
      <point x="196" y="396"/>
      <point x="155" y="372" type="curve"/>
      <point x="209" y="367"/>
      <point x="279" y="350"/>
      <point x="328" y="332" type="curve"/>
      <point x="331" y="241"/>
      <point x="327" y="136"/>
    </contour>
  </outline>
</glyph>
<glyph name="q" format="1">
  <advance width="431"/>
  <unicode hex="0071"/>
  <outline>
    <contour>
      <point x="150" y="-22" type="curve"/>
      <point x="284" y="37" type="line"/>
      <point x="293" y="48" type="line"/>
      <point x="234" y="48"/>
      <point x="171" y="64"/>
      <point x="112" y="86" type="curve"/>
      <point x="115" y="390" type="line"/>
      <point x="308" y="344" type="line"/>
      <point x="295" y="241"/>
      <point x="288" y="151"/>
      <point x="276" y="44" type="curve"/>
      <point x="266" y="-37"/>
      <point x="267" y="-106"/>
      <point x="260" y="-158" type="curve"/>
      <point x="266" y="-163" type="line"/>
      <point x="289" y="-153"/>
      <point x="324" y="-144"/>
      <point x="370" y="-126" type="curve"/>
      <point x="358" y="30"/>
      <point x="375" y="278"/>
      <point x="401" y="400" type="curve"/>
      <point x="314" y="421"/>
      <point x="212" y="450"/>
      <point x="176" y="467" type="curve"/>
      <point x="30" y="377" type="line"/>
      <point x="36" y="289"/>
      <point x="46" y="155"/>
      <point x="37" y="38" type="curve"/>
      <point x="76" y="21"/>
      <point x="118" y="2"/>
    </contour>
  </outline>
</glyph>
<glyph name="r" format="1">
  <advance width="276"/>
  <unicode hex="0072"/>
  <outline>
    <contour>
      <point x="138" y="96" type="curve"/>
      <point x="137" y="356" type="line"/>
      <point x="162" y="367" type="line"/>
      <point x="182" y="350"/>
      <point x="202" y="323"/>
      <point x="215" y="298" type="curve"/>
      <point x="220" y="296" type="line"/>
      <point x="241" y="313"/>
      <point x="251" y="323"/>
      <point x="266" y="346" type="curve"/>
      <point x="278" y="384"/>
      <point x="264" y="430"/>
      <point x="240" y="460" type="curve"/>
      <point x="210" y="433"/>
      <point x="181" y="410"/>
      <point x="147" y="394" type="curve"/>
      <point x="78" y="461" type="line"/>
      <point x="15" y="407" type="line"/>
      <point x="15" y="394" type="line"/>
      <point x="47" y="371"/>
      <point x="57" y="366"/>
      <point x="57" y="346" type="curve"/>
      <point x="57" y="174"/>
      <point x="55" y="78"/>
      <point x="38" y="63" type="curve"/>
      <point x="38" y="53" type="line"/>
      <point x="100" y="28"/>
      <point x="167" y="0"/>
      <point x="198" y="-24" type="curve"/>
      <point x="271" y="50" type="line"/>
      <point x="271" y="58" type="line"/>
      <point x="208" y="67"/>
      <point x="161" y="74"/>
    </contour>
  </outline>
</glyph>
<glyph name="s" format="1">
  <advance width="385"/>
  <unicode hex="0073"/>
  <outline>
    <contour>
      <point x="123" y="348" type="curve"/>
      <point x="124" y="377"/>
      <point x="143" y="399"/>
      <point x="165" y="410" type="curve"/>
      <point x="211" y="388"/>
      <point x="284" y="348"/>
      <point x="284" y="292" type="curve"/>
      <point x="232" y="258"/>
      <point x="187" y="241"/>
      <point x="142" y="236" type="curve"/>
      <point x="132" y="270"/>
      <point x="124" y="314"/>
    </contour>
    <contour>
      <point x="29" y="338" type="curve"/>
      <point x="36" y="286"/>
      <point x="73" y="208"/>
      <point x="99" y="142" type="curve"/>
      <point x="124" y="186"/>
      <point x="171" y="208"/>
      <point x="233" y="229" type="curve"/>
      <point x="249" y="220"/>
      <point x="254" y="208"/>
      <point x="262" y="194" type="curve"/>
      <point x="265" y="128"/>
      <point x="260" y="46"/>
      <point x="226" y="37" type="curve"/>
      <point x="177" y="57"/>
      <point x="102" y="133"/>
      <point x="102" y="165" type="curve"/>
      <point x="116" y="193" type="line"/>
      <point x="106" y="205" type="line"/>
      <point x="18" y="115" type="line"/>
      <point x="66" y="72"/>
      <point x="115" y="28"/>
      <point x="180" y="-12" type="curve"/>
      <point x="229" y="1"/>
      <point x="302" y="35"/>
      <point x="339" y="64" type="curve"/>
      <point x="352" y="172"/>
      <point x="348" y="222"/>
      <point x="303" y="266" type="curve"/>
      <point x="313" y="288"/>
      <point x="341" y="307"/>
      <point x="363" y="323" type="curve"/>
      <point x="339" y="392"/>
      <point x="281" y="436"/>
      <point x="244" y="460" type="curve"/>
      <point x="163" y="441"/>
      <point x="96" y="431"/>
    </contour>
  </outline>
</glyph>
<glyph name="t" format="1">
  <advance width="279"/>
  <unicode hex="0074"/>
  <outline>
    <contour>
      <point x="144" y="385" type="curve"/>
      <point x="144" y="463"/>
      <point x="147" y="512"/>
      <point x="163" y="592" type="curve"/>
      <point x="147" y="596" type="line"/>
      <point x="107" y="520"/>
      <point x="59" y="450"/>
      <point x="20" y="394" type="curve"/>
      <point x="21" y="385" type="line"/>
      <point x="35" y="376"/>
      <point x="51" y="359"/>
      <point x="66" y="340" type="curve"/>
      <point x="69" y="270"/>
      <point x="70" y="137"/>
      <point x="60" y="56" type="curve"/>
      <point x="82" y="30"/>
      <point x="104" y="10"/>
      <point x="146" y="-10" type="curve"/>
      <point x="229" y="52" type="line"/>
      <point x="229" y="58" type="line"/>
      <point x="184" y="77"/>
      <point x="142" y="111"/>
      <point x="142" y="127" type="curve"/>
      <point x="135" y="217"/>
      <point x="142" y="334"/>
    </contour>
    <contour>
      <point x="277" y="445" type="line"/>
      <point x="121" y="445" type="line"/>
      <point x="121" y="369" type="line"/>
      <point x="173" y="371"/>
      <point x="224" y="368"/>
      <point x="276" y="362" type="curve"/>
    </contour>
  </outline>
</glyph>
<glyph name="u" format="1">
  <advance width="428"/>
  <unicode hex="0075"/>
  <outline>
    <contour>
      <point x="403" y="414" type="curve"/>
      <point x="356" y="478" type="line"/>
      <point x="259" y="401" type="line"/>
      <point x="259" y="397" type="line"/>
      <point x="274" y="384"/>
      <point x="290" y="372"/>
      <point x="299" y="363" type="curve"/>
      <point x="302" y="308"/>
      <point x="302" y="172"/>
      <point x="291" y="106" type="curve"/>
      <point x="273" y="62" type="line"/>
      <point x="301" y="34"/>
      <point x="316" y="7"/>
      <point x="327" y="-24" type="curve"/>
      <point x="413" y="48" type="line"/>
      <point x="413" y="54" type="line"/>
      <point x="403" y="66"/>
      <point x="392" y="73"/>
      <point x="380" y="88" type="curve"/>
      <point x="380" y="242"/>
      <point x="375" y="339"/>
    </contour>
    <contour>
      <point x="15" y="415" type="line"/>
      <point x="15" y="412" type="line"/>
      <point x="35" y="394"/>
      <point x="56" y="377"/>
      <point x="63" y="366" type="curve"/>
      <point x="72" y="269"/>
      <point x="73" y="109"/>
      <point x="53" y="41" type="curve"/>
      <point x="56" y="35" type="line"/>
      <point x="73" y="33"/>
      <point x="82" y="30"/>
      <point x="93" y="23" type="curve"/>
      <point x="111" y="13"/>
      <point x="145" y="-2"/>
      <point x="168" y="-18" type="curve"/>
      <point x="211" y="17"/>
      <point x="243" y="44"/>
      <point x="286" y="66" type="curve"/>
      <point x="304" y="113" type="line"/>
      <point x="274" y="90"/>
      <point x="246" y="75"/>
      <point x="214" y="66" type="curve"/>
      <point x="185" y="75"/>
      <point x="161" y="90"/>
      <point x="147" y="103" type="curve"/>
      <point x="149" y="363" type="line"/>
      <point x="149" y="378"/>
      <point x="165" y="384"/>
      <point x="171" y="393" type="curve"/>
      <point x="93" y="478" type="line"/>
    </contour>
  </outline>
</glyph>
<glyph name="v" format="1">
  <advance width="442"/>
  <unicode hex="0076"/>
  <outline>
    <contour>
      <point x="196" y="469" type="curve"/>
      <point x="144" y="392" type="line"/>
      <point x="144" y="352" type="line"/>
      <point x="168" y="384" type="line"/>
      <point x="221" y="377"/>
      <point x="277" y="366"/>
      <point x="321" y="352" type="curve"/>
      <point x="332" y="256"/>
      <point x="328" y="156"/>
      <point x="315" y="60" type="curve"/>
      <point x="245" y="61"/>
      <point x="189" y="82"/>
      <point x="156" y="93" type="curve"/>
      <point x="149" y="193"/>
      <point x="149" y="321"/>
      <point x="151" y="398" type="curve"/>
      <point x="102" y="450" type="line"/>
      <point x="5" y="408" type="line"/>
      <point x="5" y="402" type="line"/>
      <point x="32" y="373"/>
      <point x="73" y="339"/>
      <point x="78" y="287" type="curve"/>
      <point x="83" y="209"/>
      <point x="72" y="125"/>
      <point x="61" y="59" type="curve"/>
      <point x="125" y="35"/>
      <point x="208" y="3"/>
      <point x="250" y="-13" type="curve"/>
      <point x="390" y="48" type="line"/>
      <point x="412" y="212"/>
      <point x="398" y="383"/>
      <point x="398" y="430" type="curve"/>
      <point x="336" y="441"/>
      <point x="258" y="450"/>
    </contour>
  </outline>
</glyph>
<glyph name="w" format="1">
  <advance width="653"/>
  <unicode hex="0077"/>
  <outline>
    <contour>
      <point x="428" y="470" type="curve"/>
      <point x="360" y="412" type="line"/>
      <point x="363" y="359" type="line"/>
      <point x="371" y="378"/>
      <point x="377" y="386"/>
      <point x="384" y="394" type="curve"/>
      <point x="432" y="390"/>
      <point x="490" y="370"/>
      <point x="519" y="356" type="curve"/>
      <point x="526" y="268"/>
      <point x="525" y="188"/>
      <point x="517" y="81" type="curve"/>
      <point x="491" y="73"/>
      <point x="406" y="104"/>
      <point x="363" y="118" type="curve"/>
      <point x="356" y="187"/>
      <point x="360" y="286"/>
      <point x="367" y="412" type="curve"/>
      <point x="324" y="430"/>
      <point x="259" y="458"/>
      <point x="235" y="465" type="curve"/>
      <point x="202" y="438"/>
      <point x="174" y="414"/>
      <point x="125" y="404" type="curve"/>
      <point x="126" y="360" type="line"/>
      <point x="152" y="386" type="line"/>
      <point x="198" y="382"/>
      <point x="247" y="365"/>
      <point x="292" y="347" type="curve"/>
      <point x="291" y="243"/>
      <point x="293" y="141"/>
      <point x="273" y="67" type="curve"/>
      <point x="212" y="85"/>
      <point x="170" y="97"/>
      <point x="133" y="116" type="curve"/>
      <point x="126" y="218"/>
      <point x="138" y="308"/>
      <point x="139" y="387" type="curve"/>
      <point x="174" y="414" type="line"/>
      <point x="89" y="473" type="line"/>
      <point x="15" y="404" type="line"/>
      <point x="15" y="397" type="line"/>
      <point x="33" y="387"/>
      <point x="56" y="366"/>
      <point x="67" y="340" type="curve"/>
      <point x="68" y="247"/>
      <point x="59" y="134"/>
      <point x="45" y="56" type="curve"/>
      <point x="104" y="49"/>
      <point x="196" y="21"/>
      <point x="238" y="-26" type="curve"/>
      <point x="300" y="49" type="line"/>
      <point x="372" y="48"/>
      <point x="447" y="17"/>
      <point x="486" y="-15" type="curve"/>
      <point x="527" y="32"/>
      <point x="579" y="78"/>
      <point x="602" y="99" type="curve"/>
      <point x="600" y="177"/>
      <point x="589" y="320"/>
      <point x="608" y="426" type="curve"/>
      <point x="564" y="426"/>
      <point x="459" y="457"/>
    </contour>
  </outline>
</glyph>
<glyph name="x" format="1">
  <advance width="395"/>
  <unicode hex="0078"/>
  <outline>
    <contour>
      <point x="25" y="402" type="curve"/>
      <point x="25" y="408" type="line"/>
      <point x="105" y="464" type="line"/>
      <point x="197" y="337"/>
      <point x="275" y="177"/>
      <point x="390" y="55" type="curve"/>
      <point x="389" y="50" type="line"/>
      <point x="305" y="-9" type="line"/>
      <point x="250" y="99"/>
      <point x="138" y="280"/>
    </contour>
    <contour>
      <point x="230" y="241" type="line"/>
      <point x="210" y="276" type="line"/>
      <point x="312" y="454" type="line"/>
      <point x="365" y="420" type="line"/>
    </contour>
    <contour>
      <point x="178" y="236" type="line"/>
      <point x="190" y="196" type="line"/>
      <point x="55" y="0" type="line"/>
      <point x="5" y="37" type="line"/>
    </contour>
  </outline>
</glyph>
<glyph name="y" format="1">
  <advance width="445"/>
  <unicode hex="0079"/>
  <outline>
    <contour>
      <point x="115" y="-148" type="line"/>
      <point x="193" y="41" type="line"/>
      <point x="138" y="183"/>
      <point x="55" y="355"/>
      <point x="5" y="443" type="curve"/>
      <point x="5" y="448" type="line"/>
      <point x="107" y="451" type="line"/>
      <point x="143" y="367"/>
      <point x="195" y="255"/>
      <point x="238" y="156" type="curve"/>
      <point x="273" y="251"/>
      <point x="329" y="368"/>
      <point x="360" y="448" type="curve"/>
      <point x="440" y="448" type="line"/>
      <point x="440" y="445" type="line"/>
      <point x="344" y="278"/>
      <point x="238" y="55"/>
      <point x="177" y="-143" type="curve"/>
      <point x="117" y="-152" type="line"/>
    </contour>
  </outline>
</glyph>
<glyph name="z" format="1">
  <advance width="354"/>
  <unicode hex="007A"/>
  <outline>
    <contour>
      <point x="388" y="93" type="curve"/>
      <point x="393" y="88" type="line"/>
      <point x="342" y="-5" type="line"/>
      <point x="145" y="23"/>
      <point x="90" y="30"/>
      <point x="3" y="0" type="curve"/>
      <point x="-1" y="7" type="line"/>
      <point x="81" y="100"/>
      <point x="210" y="269"/>
      <point x="265" y="370" type="curve"/>
      <point x="187" y="373"/>
      <point x="36" y="373"/>
      <point x="9" y="359" type="curve"/>
      <point x="3" y="365" type="line"/>
      <point x="16" y="452" type="line"/>
      <point x="164" y="445"/>
      <point x="286" y="451"/>
      <point x="371" y="464" type="curve"/>
      <point x="374" y="456" type="line"/>
      <point x="309" y="357"/>
      <point x="187" y="182"/>
      <point x="137" y="104" type="curve"/>
      <point x="200" y="103"/>
      <point x="343" y="78"/>
    </contour>
  </outline>
</glyph>
<glyph name="Adieresis" format="1">
  <advance width="731"/>
  <unicode hex="00C4"/>
  <outline>
    <contour>
      <point x="138" y="146" type="curve"/>
      <point x="161" y="231" type="line"/>
      <point x="285" y="211"/>
      <point x="409" y="210"/>
      <point x="533" y="210" type="curve"/>
      <point x="560" y="115" type="line"/>
      <point x="419" y="140"/>
      <point x="279" y="143"/>
    </contour>
    <contour>
      <point x="10" y="0" type="line"/>
      <point x="275" y="701" type="line"/>
      <point x="401" y="702" type="line"/>
      <point x="511" y="468"/>
      <point x="621" y="174"/>
      <point x="721" y="0" type="curve"/>
      <point x="583" y="0" type="line"/>
      <point x="509" y="222"/>
      <point x="429" y="410"/>
      <point x="331" y="612" type="curve"/>
      <point x="218" y="403"/>
      <point x="165" y="216"/>
      <point x="98" y="0" type="curve"/>
    </contour>
    <contour>
      <point x="659" y="703" type="line"/>
      <point x="576" y="599" type="line"/>
      <point x="514" y="609" type="line"/>
      <point x="543" y="707" type="line"/>
      <point x="656" y="706" type="line"/>
    </contour>
    <contour>
      <point x="207" y="698" type="line"/>
      <point x="110" y="577" type="line"/>
      <point x="40" y="566" type="line"/>
      <point x="35" y="569" type="line"/>
      <point x="90" y="695" type="line"/>
    </contour>
  </outline>
</glyph>
<glyph name="Udieresis" format="1">
  <advance width="737"/>
  <unicode hex="00DC"/>
  <outline>
    <contour>
      <point x="295" y="443" type="line"/>
      <point x="274" y="605" type="line"/>
      <point x="331" y="698" type="line"/>
      <point x="350" y="697" type="line"/>
      <point x="311" y="442" type="line"/>
    </contour>
    <contour>
      <point x="422" y="432" type="line"/>
      <point x="419" y="619" type="line"/>
      <point x="486" y="702" type="line"/>
      <point x="503" y="700" type="line"/>
      <point x="439" y="434" type="line"/>
    </contour>
    <contour>
      <point x="688" y="10" type="curve"/>
      <point x="688" y="0" type="line"/>
      <point x="549" y="0" type="line"/>
      <point x="546" y="310"/>
      <point x="568" y="587"/>
      <point x="559" y="697" type="curve"/>
      <point x="697" y="700" type="line"/>
      <point x="697" y="693" type="line"/>
      <point x="690" y="680"/>
      <point x="677" y="660"/>
      <point x="676" y="644" type="curve"/>
      <point x="661" y="474"/>
      <point x="642" y="235"/>
      <point x="660" y="84" type="curve"/>
      <point x="665" y="41"/>
      <point x="679" y="22"/>
    </contour>
    <contour>
      <point x="554" y="339" type="curve"/>
      <point x="562" y="207" type="line"/>
      <point x="532" y="146"/>
      <point x="439" y="64"/>
      <point x="307" y="-11" type="curve"/>
      <point x="220" y="23"/>
      <point x="132" y="62"/>
      <point x="89" y="114" type="curve"/>
      <point x="106" y="240"/>
      <point x="87" y="498"/>
      <point x="80" y="593" type="curve"/>
      <point x="77" y="632"/>
      <point x="58" y="647"/>
      <point x="41" y="678" type="curve"/>
      <point x="40" y="686" type="line"/>
      <point x="189" y="686" type="line"/>
      <point x="174" y="570"/>
      <point x="181" y="391"/>
      <point x="185" y="265" type="curve"/>
      <point x="188" y="162"/>
      <point x="261" y="93"/>
      <point x="341" y="93" type="curve"/>
      <point x="411" y="93"/>
      <point x="534" y="166"/>
    </contour>
  </outline>
</glyph>
<glyph name="germandbls" format="1">
  <advance width="433"/>
  <unicode hex="00DF"/>
  <outline>
    <contour>
      <point x="119" y="-27" type="curve"/>
      <point x="45" y="30" type="line"/>
      <point x="58" y="162"/>
      <point x="65" y="496"/>
      <point x="52" y="626" type="curve"/>
      <point x="183" y="710" type="line"/>
      <point x="216" y="697"/>
      <point x="280" y="676"/>
      <point x="313" y="669" type="curve"/>
      <point x="274" y="596" type="line"/>
      <point x="266" y="593" type="line"/>
      <point x="155" y="633" type="line"/>
      <point x="139" y="575"/>
      <point x="142" y="174"/>
      <point x="132" y="83" type="curve"/>
      <point x="148" y="61"/>
      <point x="165" y="52"/>
      <point x="181" y="47" type="curve"/>
      <point x="181" y="39" type="line"/>
      <point x="154" y="19"/>
      <point x="140" y="0"/>
    </contour>
    <contour>
      <point x="117" y="124" type="curve"/>
      <point x="124" y="187" type="line"/>
      <point x="249" y="206" type="line"/>
      <point x="291" y="184"/>
      <point x="338" y="165"/>
      <point x="374" y="121" type="curve"/>
      <point x="374" y="38"/>
      <point x="371" y="-61"/>
      <point x="276" y="-166" type="curve"/>
      <point x="259" y="-156" type="line"/>
      <point x="339" y="-7"/>
      <point x="297" y="113"/>
      <point x="173" y="160" type="curve"/>
      <point x="150" y="155"/>
      <point x="135" y="144"/>
    </contour>
    <contour>
      <point x="128" y="368" type="line"/>
      <point x="113" y="426" type="line"/>
      <point x="167" y="446"/>
      <point x="198" y="472"/>
      <point x="240" y="502" type="curve"/>
      <point x="268" y="472"/>
      <point x="376" y="424"/>
      <point x="413" y="410" type="curve"/>
      <point x="411" y="398" type="line"/>
      <point x="364" y="345"/>
      <point x="251" y="225"/>
      <point x="236" y="186" type="curve"/>
      <point x="153" y="185" type="line"/>
      <point x="230" y="237"/>
      <point x="268" y="295"/>
      <point x="304" y="338" type="curve"/>
      <point x="279" y="369"/>
      <point x="188" y="404"/>
      <point x="166" y="414" type="curve"/>
    </contour>
  </outline>
</glyph>
<glyph name="adieresis" format="1">
  <advance width="427"/>
  <unicode hex="00E4"/>
  <outline>
    <contour>
      <point x="129" y="494" type="line"/>
      <point x="219" y="662" type="line"/>
      <point x="277" y="668" type="line"/>
      <point x="275" y="659" type="line"/>
      <point x="165" y="500" type="line"/>
    </contour>
    <contour>
      <point x="239" y="505" type="line"/>
      <point x="334" y="676" type="line"/>
      <point x="402" y="684" type="line"/>
      <point x="401" y="676" type="line"/>
      <point x="272" y="513" type="line"/>
    </contour>
    <component base="a"/>
  </outline>
</glyph>
<glyph name="odieresis" format="1">
  <advance width="388"/>
  <unicode hex="00F6"/>
  <outline>
    <contour>
      <point x="108" y="535" type="line"/>
      <point x="144" y="691" type="line"/>
      <point x="193" y="688" type="line"/>
      <point x="129" y="535" type="line"/>
    </contour>
    <contour>
      <point x="207" y="533" type="line"/>
      <point x="254" y="688" type="line"/>
      <point x="302" y="686" type="line"/>
      <point x="229" y="533" type="line"/>
    </contour>
    <component base="o"/>
  </outline>
</glyph>
<glyph name="udieresis" format="1">
  <advance width="428"/>
  <unicode hex="00FC"/>
  <outline>
    <contour>
      <point x="98" y="540" type="line"/>
      <point x="183" y="712" type="line"/>
      <point x="241" y="723" type="line"/>
      <point x="131" y="547" type="line"/>
    </contour>
    <contour>
      <point x="217" y="548" type="line"/>
      <point x="304" y="718" type="line"/>
      <point x="366" y="729" type="line"/>
      <point x="245" y="552" type="line"/>
    </contour>
    <component base="u"/>
  </outline>
</glyph>
<glyph name="quotedblleft" format="1">
  <advance width="209"/>
  <unicode hex="201C"/>
  <outline>
    <contour>
      <point x="147" y="128" type="line"/>
      <point x="189" y="129" type="line"/>
      <point x="118" y="-155" type="line"/>
      <point x="87" y="-156" type="line"/>
    </contour>
    <contour>
      <point x="74" y="133" type="line"/>
      <point x="114" y="134" type="line"/>
      <point x="52" y="-158" type="line"/>
      <point x="20" y="-159" type="line"/>
    </contour>
  </outline>
</glyph>
<glyph name="quotedblright" format="1">
  <advance width="209"/>
  <unicode hex="201D"/>
  <outline>
    <contour>
      <point x="147" y="699" type="line"/>
      <point x="189" y="700" type="line"/>
      <point x="118" y="416" type="line"/>
      <point x="87" y="415" type="line"/>
    </contour>
    <contour>
      <point x="74" y="704" type="line"/>
      <point x="114" y="705" type="line"/>
      <point x="52" y="413" type="line"/>
      <point x="20" y="412" type="line"/>
    </contour>
  </outline>
</glyph>
<glyph name="cross" format="1">
  <advance width="820"/>
  <unicode hex="271D"/>
  <outline>
    <contour>
      <point x="60" y="326" type="curve"/>
      <point x="65" y="318" type="line"/>
      <point x="358" y="318" type="line"/>
      <point x="362" y="209"/>
      <point x="359" y="113"/>
      <point x="349" y="4" type="curve"/>
      <point x="358" y="-1" type="line"/>
      <point x="393" y="23"/>
      <point x="429" y="22"/>
      <point x="464" y="-14" type="curve"/>
      <point x="473" y="-9" type="line"/>
      <point x="463" y="108"/>
      <point x="459" y="203"/>
      <point x="464" y="308" type="curve"/>
      <point x="758" y="310" type="line"/>
      <point x="760" y="317" type="line"/>
      <point x="737" y="352"/>
      <point x="735" y="364"/>
      <point x="759" y="400" type="curve"/>
      <point x="758" y="407" type="line"/>
      <point x="464" y="409" type="line"/>
      <point x="461" y="499"/>
      <point x="464" y="606"/>
      <point x="473" y="696" type="curve"/>
      <point x="464" y="699" type="line"/>
      <point x="429" y="664"/>
      <point x="399" y="664"/>
      <point x="364" y="699" type="curve"/>
      <point x="355" y="697" type="line"/>
      <point x="361" y="607"/>
      <point x="361" y="505"/>
      <point x="360" y="415" type="curve"/>
      <point x="64" y="415" type="line"/>
      <point x="60" y="408" type="line"/>
      <point x="84" y="372"/>
      <point x="84" y="362"/>
    </contour>
  </outline>
</glyph>
<glyph name="D.ss01" format="1">
  <advance width="650"/>
  <outline>
    <contour>
      <point x="94" y="634" type="curve"/>
      <point x="53" y="687" type="line"/>
      <point x="53" y="700" type="line"/>
      <point x="106" y="700"/>
      <point x="221" y="707"/>
      <point x="277" y="707" type="curve"/>
      <point x="471" y="707"/>
      <point x="625" y="562"/>
      <point x="625" y="354" type="curve"/>
      <point x="625" y="110"/>
      <point x="423" y="-6"/>
      <point x="197" y="-4" type="curve"/>
      <point x="133" y="-3"/>
      <point x="95" y="-3"/>
      <point x="41" y="-1" type="curve"/>
      <point x="40" y="9" type="line"/>
      <point x="82" y="55" type="line"/>
      <point x="95" y="248"/>
      <point x="99" y="441"/>
    </contour>
    <contour>
      <point x="202" y="666" type="curve"/>
      <point x="190" y="468"/>
      <point x="187" y="213"/>
      <point x="193" y="46" type="curve"/>
      <point x="385" y="1"/>
      <point x="515" y="166"/>
      <point x="515" y="354" type="curve"/>
      <point x="515" y="542"/>
      <point x="402" y="679"/>
    </contour>
  </outline>
</glyph>
<glyph name="H.ss01" format="1">
  <advance width="600"/>
  <outline>
    <contour>
      <point x="176" y="0" type="curve"/>
      <point x="45" y="0" type="line"/>
      <point x="72" y="223"/>
      <point x="63" y="465"/>
      <point x="40" y="700" type="curve"/>
      <point x="176" y="700" type="line"/>
      <point x="158" y="541"/>
      <point x="149" y="159"/>
    </contour>
    <contour>
      <point x="152" y="232" type="curve"/>
      <point x="134" y="327" type="line"/>
      <point x="197" y="388"/>
      <point x="259" y="450"/>
      <point x="380" y="450" type="curve"/>
      <point x="467" y="450"/>
      <point x="536" y="368"/>
      <point x="536" y="247" type="curve"/>
      <point x="536" y="184"/>
      <point x="543" y="90"/>
      <point x="556" y="0" type="curve"/>
      <point x="434" y="0" type="line"/>
      <point x="458" y="204"/>
      <point x="448" y="381"/>
      <point x="302" y="381" type="curve"/>
      <point x="232" y="381"/>
      <point x="167" y="318"/>
    </contour>
  </outline>
</glyph>
<glyph name="K.ss01" format="1">
  <advance width="706"/>
  <outline>
    <contour>
      <point x="701" y="50" type="curve"/>
      <point x="604" y="-40" type="line"/>
      <point x="506" y="77"/>
      <point x="381" y="249"/>
      <point x="284" y="305" type="curve"/>
      <point x="393" y="420"/>
      <point x="512" y="555"/>
      <point x="611" y="680" type="curve"/>
      <point x="690" y="622" type="line"/>
      <point x="563" y="529"/>
      <point x="478" y="463"/>
      <point x="389" y="363" type="curve"/>
      <point x="512" y="234"/>
      <point x="587" y="153"/>
    </contour>
    <contour>
      <point x="53" y="-5" type="curve"/>
      <point x="52" y="-1" type="line"/>
      <point x="69" y="35"/>
      <point x="93" y="66"/>
      <point x="97" y="105" type="curve"/>
      <point x="113" y="263"/>
      <point x="108" y="473"/>
      <point x="108" y="570" type="curve"/>
      <point x="108" y="622"/>
      <point x="83" y="643"/>
      <point x="40" y="646" type="curve"/>
      <point x="40" y="661" type="line"/>
      <point x="213" y="700" type="line"/>
      <point x="203" y="539"/>
      <point x="188" y="247"/>
      <point x="187" y="90" type="curve"/>
      <point x="265" y="91" type="line"/>
      <point x="274" y="276"/>
      <point x="274" y="445"/>
      <point x="267" y="630" type="curve"/>
      <point x="322" y="708" type="line"/>
      <point x="329" y="704" type="line"/>
      <point x="316" y="584"/>
      <point x="298" y="270"/>
      <point x="318" y="0" type="curve"/>
      <point x="314" y="-5" type="line"/>
      <point x="197" y="10"/>
      <point x="140" y="15"/>
    </contour>
  </outline>
</glyph>
<glyph name="S.ss01" format="1">
  <advance width="456"/>
  <outline>
    <contour>
      <point x="207" y="661" type="curve"/>
      <point x="327" y="661"/>
      <point x="337" y="446"/>
      <point x="340" y="401" type="curve"/>
      <point x="373" y="400" type="line"/>
      <point x="370" y="444"/>
      <point x="371" y="637"/>
      <point x="388" y="687" type="curve"/>
      <point x="363" y="694" type="line"/>
      <point x="361" y="681"/>
      <point x="337" y="641"/>
      <point x="331" y="595" type="curve"/>
      <point x="350" y="576" type="line"/>
      <point x="337" y="641"/>
      <point x="290" y="710"/>
      <point x="201" y="710" type="curve"/>
      <point x="117" y="710"/>
      <point x="37" y="639"/>
      <point x="37" y="520" type="curve"/>
      <point x="37" y="408"/>
      <point x="92" y="345"/>
      <point x="195" y="302" type="curve"/>
      <point x="279" y="267"/>
      <point x="335" y="224"/>
      <point x="335" y="150" type="curve"/>
      <point x="335" y="75"/>
      <point x="290" y="33"/>
      <point x="237" y="33" type="curve"/>
      <point x="141" y="33"/>
      <point x="95" y="188"/>
      <point x="85" y="340" type="curve"/>
      <point x="52" y="340" type="line"/>
      <point x="56" y="288"/>
      <point x="55" y="161"/>
      <point x="35" y="61" type="curve"/>
      <point x="59" y="53" type="line"/>
      <point x="89" y="126" type="line"/>
      <point x="73" y="152" type="line"/>
      <point x="98" y="56"/>
      <point x="156" y="-10"/>
      <point x="237" y="-10" type="curve"/>
      <point x="340" y="-10"/>
      <point x="421" y="75"/>
      <point x="421" y="208" type="curve"/>
      <point x="421" y="318"/>
      <point x="371" y="387"/>
      <point x="259" y="433" type="curve"/>
      <point x="166" y="471"/>
      <point x="117" y="507"/>
      <point x="117" y="570" type="curve"/>
      <point x="117" y="625"/>
      <point x="148" y="661"/>
    </contour>
  </outline>
</glyph>
<glyph name="a_e" format="1">
  <advance width="600"/>
  <outline>
    <contour>
      <point x="609" y="292" type="line"/>
      <point x="357" y="159" type="line"/>
      <point x="350" y="216" type="line"/>
      <point x="526" y="270" type="line"/>
      <point x="436" y="427" type="line"/>
      <point x="407" y="413" type="line"/>
      <point x="394" y="377"/>
      <point x="377" y="301"/>
      <point x="377" y="193" type="curve"/>
      <point x="377" y="85"/>
      <point x="413" y="83"/>
      <point x="559" y="51" type="curve"/>
      <point x="562" y="43" type="line"/>
      <point x="476" y="-11" type="line"/>
      <point x="304" y="60" type="line"/>
      <point x="302" y="126"/>
      <point x="316" y="303"/>
      <point x="326" y="402" type="curve"/>
      <point x="475" y="474" type="line"/>
      <point x="609" y="302" type="line"/>
    </contour>
    <contour>
      <point x="321" y="73" type="curve"/>
      <point x="339" y="62" type="line"/>
      <point x="253" y="-8" type="line"/>
      <point x="54" y="67" type="line"/>
      <point x="61" y="175"/>
      <point x="71" y="284"/>
      <point x="58" y="392" type="curve"/>
      <point x="170" y="471" type="line"/>
      <point x="223" y="444"/>
      <point x="307" y="423"/>
      <point x="360" y="412" type="curve"/>
      <point x="321" y="352" type="line"/>
      <point x="147" y="398" type="line"/>
      <point x="136" y="113" type="line"/>
      <point x="223" y="78"/>
      <point x="259" y="54"/>
    </contour>
    <contour>
      <point x="103" y="196" type="line"/>
      <point x="105" y="253" type="line"/>
      <point x="345" y="252" type="line"/>
      <point x="330" y="198" type="line"/>
    </contour>
  </outline>
</glyph>
<glyph name="c_h" format="1">
  <advance width="659"/>
  <outline>
    <contour>
      <point x="348" y="122" type="curve"/>
      <point x="355" y="275"/>
      <point x="372" y="626"/>
      <point x="386" y="699" type="curve"/>
      <point x="380" y="710" type="line"/>
      <point x="265" y="685" type="line"/>
      <point x="294" y="493"/>
      <point x="268" y="183"/>
      <point x="255" y="66" type="curve"/>
      <point x="356" y="-10" type="line"/>
      <point x="385" y="19"/>
      <point x="416" y="46"/>
      <point x="439" y="72" type="curve"/>
      <point x="438" y="81" type="line"/>
      <point x="406" y="86"/>
      <point x="371" y="101"/>
    </contour>
    <contour>
      <point x="175" y="462" type="curve"/>
      <point x="41" y="376" type="line"/>
      <point x="51" y="307"/>
      <point x="40" y="181"/>
      <point x="40" y="70" type="curve"/>
      <point x="66" y="56"/>
      <point x="112" y="16"/>
      <point x="144" y="-10" type="curve"/>
      <point x="178" y="19"/>
      <point x="211" y="44"/>
      <point x="270" y="62" type="curve"/>
      <point x="270" y="62" type="line"/>
      <point x="264" y="80" type="line"/>
      <point x="208" y="83"/>
      <point x="153" y="96"/>
      <point x="122" y="116" type="curve"/>
      <point x="106" y="223"/>
      <point x="126" y="322"/>
      <point x="137" y="375" type="curve"/>
      <point x="186" y="375"/>
      <point x="232" y="361"/>
      <point x="309" y="343" type="curve"/>
      <point x="319" y="410" type="line"/>
      <point x="268" y="430"/>
      <point x="225" y="435"/>
    </contour>
    <contour>
      <point x="492" y="464" type="curve"/>
      <point x="366" y="401" type="line"/>
      <point x="355" y="380" type="line"/>
      <point x="433" y="378"/>
      <point x="484" y="367"/>
      <point x="527" y="342" type="curve"/>
      <point x="527" y="173"/>
      <point x="554" y="70"/>
      <point x="495" y="-64" type="curve"/>
      <point x="515" y="-72" type="line"/>
      <point x="577" y="18"/>
      <point x="599" y="83"/>
      <point x="619" y="140" type="curve"/>
      <point x="619" y="220"/>
      <point x="604" y="330"/>
      <point x="599" y="407" type="curve"/>
      <point x="552" y="430"/>
      <point x="530" y="443"/>
    </contour>
  </outline>
</glyph>
<glyph name="c_k" format="1">
  <advance width="677"/>
  <outline>
    <contour>
      <point x="41" y="366" type="curve"/>
      <point x="51" y="297"/>
      <point x="40" y="191"/>
      <point x="40" y="80" type="curve"/>
      <point x="66" y="56"/>
      <point x="137" y="6"/>
      <point x="148" y="-10" type="curve"/>
      <point x="182" y="19"/>
      <point x="210" y="25"/>
      <point x="269" y="53" type="curve"/>
      <point x="269" y="53" type="line"/>
      <point x="263" y="71" type="line"/>
      <point x="207" y="74"/>
      <point x="154" y="87"/>
      <point x="113" y="107" type="curve"/>
      <point x="116" y="214"/>
      <point x="123" y="321"/>
      <point x="127" y="374" type="curve"/>
      <point x="186" y="366"/>
      <point x="223" y="346"/>
      <point x="292" y="326" type="curve"/>
      <point x="318" y="400" type="line"/>
      <point x="267" y="405"/>
      <point x="185" y="440"/>
      <point x="135" y="462" type="curve"/>
      <point x="105" y="429"/>
      <point x="81" y="404"/>
    </contour>
    <contour>
      <point x="347" y="106" type="curve"/>
      <point x="334" y="268"/>
      <point x="350" y="588"/>
      <point x="394" y="697" type="curve"/>
      <point x="385" y="710" type="line"/>
      <point x="265" y="630" type="line"/>
      <point x="275" y="572"/>
      <point x="263" y="90"/>
      <point x="256" y="55" type="curve"/>
      <point x="292" y="38"/>
      <point x="318" y="20"/>
      <point x="354" y="-13" type="curve"/>
      <point x="440" y="49" type="line"/>
      <point x="440" y="59" type="line"/>
      <point x="384" y="71"/>
      <point x="362" y="86"/>
    </contour>
    <contour>
      <point x="322" y="220" type="curve"/>
      <point x="339" y="162" type="line"/>
      <point x="362" y="192"/>
      <point x="439" y="226"/>
      <point x="481" y="226" type="curve"/>
      <point x="498" y="218"/>
      <point x="514" y="201"/>
      <point x="522" y="189" type="curve"/>
      <point x="522" y="114"/>
      <point x="524" y="74"/>
      <point x="508" y="46" type="curve"/>
      <point x="572" y="-37" type="line"/>
      <point x="647" y="20" type="line"/>
      <point x="647" y="32" type="line"/>
      <point x="608" y="51"/>
      <point x="598" y="62"/>
      <point x="590" y="75" type="curve"/>
      <point x="590" y="125"/>
      <point x="590" y="179"/>
      <point x="603" y="225" type="curve"/>
      <point x="582" y="237"/>
      <point x="549" y="259"/>
      <point x="533" y="274" type="curve"/>
      <point x="544" y="301"/>
      <point x="575" y="333"/>
      <point x="590" y="353" type="curve"/>
      <point x="563" y="397"/>
      <point x="519" y="434"/>
      <point x="478" y="475" type="curve"/>
      <point x="432" y="442"/>
      <point x="378" y="412"/>
      <point x="333" y="399" type="curve"/>
      <point x="338" y="357" type="line"/>
      <point x="352" y="371"/>
      <point x="361" y="380"/>
      <point x="379" y="387" type="curve"/>
      <point x="474" y="372"/>
      <point x="542" y="352"/>
      <point x="506" y="274" type="curve"/>
      <point x="476" y="258"/>
      <point x="392" y="220"/>
    </contour>
  </outline>
</glyph>
<glyph name="f_f" format="1">
  <advance width="466"/>
  <outline>
    <contour>
      <point x="9" y="357" type="line"/>
      <point x="56" y="454" type="line"/>
      <point x="54" y="350" type="line"/>
      <point x="10" y="350" type="line"/>
    </contour>
    <contour>
      <point x="307" y="350" type="line"/>
      <point x="108" y="350" type="line"/>
      <point x="109" y="430" type="line"/>
      <point x="307" y="430" type="line"/>
    </contour>
    <contour>
      <point x="131" y="632" type="curve"/>
      <point x="123" y="582"/>
      <point x="118" y="185"/>
      <point x="118" y="97" type="curve"/>
      <point x="171" y="74" type="line"/>
      <point x="112" y="-10" type="line"/>
      <point x="84" y="12"/>
      <point x="61" y="27"/>
      <point x="26" y="44" type="curve"/>
      <point x="54" y="123"/>
      <point x="53" y="614"/>
      <point x="31" y="636" type="curve"/>
      <point x="147" y="711" type="line"/>
      <point x="182" y="701"/>
      <point x="212" y="688"/>
      <point x="250" y="674" type="curve"/>
      <point x="220" y="597" type="line"/>
      <point x="195" y="610"/>
      <point x="160" y="622"/>
    </contour>
    <contour>
      <point x="447" y="350" type="line"/>
      <point x="334" y="350" type="line"/>
      <point x="335" y="430" type="line"/>
      <point x="447" y="430" type="line"/>
    </contour>
    <contour>
      <point x="357" y="632" type="curve"/>
      <point x="349" y="582"/>
      <point x="344" y="185"/>
      <point x="344" y="97" type="curve"/>
      <point x="397" y="74" type="line"/>
      <point x="338" y="-10" type="line"/>
      <point x="310" y="12"/>
      <point x="287" y="27"/>
      <point x="252" y="44" type="curve"/>
      <point x="280" y="123"/>
      <point x="279" y="614"/>
      <point x="257" y="636" type="curve"/>
      <point x="373" y="711" type="line"/>
      <point x="408" y="701"/>
      <point x="438" y="688"/>
      <point x="476" y="674" type="curve"/>
      <point x="446" y="597" type="line"/>
      <point x="421" y="610"/>
      <point x="386" y="622"/>
    </contour>
  </outline>
</glyph>
<glyph name="f_l" format="1">
  <advance width="431"/>
  <outline>
    <contour>
      <point x="54" y="350" type="line"/>
      <point x="56" y="454" type="line"/>
      <point x="9" y="357" type="line"/>
      <point x="10" y="350" type="line"/>
    </contour>
    <contour>
      <point x="109" y="430" type="line"/>
      <point x="108" y="350" type="line"/>
      <point x="221" y="350" type="line"/>
      <point x="221" y="430" type="line"/>
    </contour>
    <contour>
      <point x="171" y="74" type="line"/>
      <point x="118" y="97" type="line"/>
      <point x="118" y="185"/>
      <point x="123" y="590"/>
      <point x="131" y="640" type="curve"/>
      <point x="160" y="630"/>
      <point x="202" y="608"/>
      <point x="227" y="595" type="curve"/>
      <point x="298" y="656" type="line"/>
      <point x="260" y="675"/>
      <point x="182" y="705"/>
      <point x="147" y="711" type="curve"/>
      <point x="31" y="636" type="line"/>
      <point x="53" y="614"/>
      <point x="54" y="123"/>
      <point x="26" y="44" type="curve"/>
      <point x="61" y="27"/>
      <point x="84" y="12"/>
      <point x="112" y="-10" type="curve"/>
    </contour>
    <component base="l" xOffset="212"/>
  </outline>
</glyph>
<glyph name="f_t" format="1">
  <advance width="489"/>
  <outline>
    <contour>
      <point x="10" y="360" type="line"/>
      <point x="9" y="367" type="line"/>
      <point x="47" y="437" type="line"/>
      <point x="45" y="541"/>
      <point x="40" y="627"/>
      <point x="31" y="636" type="curve"/>
      <point x="147" y="711" type="line"/>
      <point x="182" y="701"/>
      <point x="212" y="688"/>
      <point x="250" y="674" type="curve"/>
      <point x="220" y="597" type="line"/>
      <point x="195" y="610"/>
      <point x="160" y="622"/>
      <point x="131" y="632" type="curve"/>
      <point x="128" y="611"/>
      <point x="125" y="526"/>
      <point x="123" y="430" type="curve"/>
      <point x="199" y="430" type="line" smooth="yes"/>
      <point x="252" y="430"/>
      <point x="290" y="462"/>
      <point x="357" y="596" type="curve"/>
      <point x="373" y="592" type="line"/>
      <point x="360" y="528"/>
      <point x="358" y="484"/>
      <point x="356" y="430" type="curve"/>
      <point x="487" y="430" type="line"/>
      <point x="487" y="357" type="line"/>
      <point x="442" y="362"/>
      <point x="398" y="362"/>
      <point x="353" y="361" type="curve"/>
      <point x="350" y="306"/>
      <point x="346" y="203"/>
      <point x="352" y="127" type="curve"/>
      <point x="352" y="111"/>
      <point x="394" y="67"/>
      <point x="439" y="48" type="curve"/>
      <point x="439" y="42" type="line"/>
      <point x="411" y="27"/>
      <point x="384" y="9"/>
      <point x="356" y="-10" type="curve"/>
      <point x="314" y="10"/>
      <point x="292" y="30"/>
      <point x="270" y="56" type="curve"/>
      <point x="280" y="137"/>
      <point x="279" y="290"/>
      <point x="276" y="360" type="curve"/>
      <point x="121" y="360" type="line"/>
      <point x="119" y="249"/>
      <point x="118" y="139"/>
      <point x="118" y="97" type="curve"/>
      <point x="171" y="74" type="line"/>
      <point x="112" y="-10" type="line"/>
      <point x="84" y="12"/>
      <point x="61" y="27"/>
      <point x="26" y="44" type="curve"/>
      <point x="40" y="83"/>
      <point x="47" y="225"/>
      <point x="47" y="360" type="curve"/>
    </contour>
  </outline>
</glyph>
<glyph name="longs_i" format="1">
  <advance width="423"/>
  <outline>
    <contour>
      <point x="376" y="419" type="curve"/>
      <point x="286" y="456" type="line"/>
      <point x="230" y="404" type="line"/>
      <point x="230" y="396" type="line"/>
      <point x="253" y="379"/>
      <point x="283" y="355"/>
      <point x="284" y="334" type="curve"/>
      <point x="287" y="264"/>
      <point x="273" y="151"/>
      <point x="263" y="70" type="curve"/>
      <point x="290" y="43"/>
      <point x="312" y="17"/>
      <point x="329" y="-10" type="curve"/>
      <point x="408" y="48" type="line"/>
      <point x="408" y="55" type="line"/>
      <point x="381" y="72"/>
      <point x="363" y="90"/>
      <point x="353" y="115" type="curve"/>
      <point x="352" y="240"/>
      <point x="359" y="349"/>
    </contour>
    <contour>
      <point x="356" y="616" type="line"/>
      <point x="243" y="500" type="line"/>
      <point x="238" y="523" type="line"/>
      <point x="337" y="651" type="line"/>
      <point x="343" y="651" type="line"/>
    </contour>
    <component base="longs"/>
  </outline>
</glyph>
<glyph name="o_e" format="1">
  <advance width="591"/>
  <outline>
    <contour>
      <point x="179" y="-10" type="curve"/>
      <point x="339" y="66" type="line"/>
      <point x="330" y="173"/>
      <point x="338" y="277"/>
      <point x="349" y="373" type="curve"/>
      <point x="288" y="404"/>
      <point x="229" y="431"/>
      <point x="162" y="465" type="curve"/>
      <point x="35" y="377" type="line"/>
      <point x="42" y="289"/>
      <point x="38" y="189"/>
      <point x="30" y="72" type="curve"/>
      <point x="80" y="50"/>
      <point x="131" y="22"/>
    </contour>
    <contour>
      <point x="268" y="349" type="curve"/>
      <point x="260" y="70" type="line"/>
      <point x="190" y="82"/>
      <point x="139" y="101"/>
      <point x="106" y="124" type="curve"/>
      <point x="116" y="378" type="line"/>
      <point x="170" y="373"/>
      <point x="221" y="361"/>
    </contour>
    <contour>
      <point x="321" y="171" type="line"/>
      <point x="329" y="135" type="line"/>
      <point x="531" y="249" type="line"/>
      <point x="583" y="309" type="line"/>
      <point x="586" y="321" type="line"/>
      <point x="421" y="479" type="line"/>
      <point x="265" y="374" type="line"/>
      <point x="278" y="275"/>
      <point x="274" y="116"/>
      <point x="266" y="50" type="curve"/>
      <point x="481" y="-21" type="line"/>
      <point x="527" y="52" type="line"/>
      <point x="524" y="60" type="line"/>
      <point x="443" y="70"/>
      <point x="389" y="82"/>
      <point x="342" y="100" type="curve"/>
      <point x="333" y="108"/>
      <point x="345" y="344"/>
      <point x="363" y="398" type="curve"/>
      <point x="512" y="271" type="line"/>
    </contour>
  </outline>
</glyph>
<glyph name="t_z" format="1">
  <advance width="376"/>
  <outline>
    <contour>
      <point x="183" y="60" type="line"/>
      <point x="113" y="-10" type="line"/>
      <point x="45" y="53" type="line"/>
      <point x="58" y="185"/>
      <point x="60" y="390"/>
      <point x="47" y="520" type="curve"/>
      <point x="166" y="604" type="line"/>
      <point x="183" y="599" type="line"/>
      <point x="166" y="520"/>
      <point x="129" y="168"/>
      <point x="135" y="98" type="curve"/>
      <point x="183" y="65" type="line"/>
    </contour>
    <contour>
      <point x="137" y="416" type="line"/>
      <point x="146" y="456" type="line"/>
      <point x="409" y="450" type="line"/>
      <point x="415" y="442" type="line"/>
      <point x="345" y="340"/>
      <point x="273" y="262"/>
      <point x="245" y="192" type="curve"/>
      <point x="159" y="173" type="line"/>
      <point x="228" y="242"/>
      <point x="273" y="321"/>
      <point x="314" y="390" type="curve"/>
    </contour>
    <contour>
      <point x="114" y="126" type="curve"/>
      <point x="114" y="161" type="line"/>
      <point x="245" y="209" type="line"/>
      <point x="376" y="150" type="line"/>
      <point x="394" y="35"/>
      <point x="395" y="-10"/>
      <point x="370" y="-112" type="curve"/>
      <point x="345" y="-110" type="line"/>
      <point x="345" y="12"/>
      <point x="314" y="108"/>
      <point x="209" y="145" type="curve"/>
      <point x="170" y="146"/>
      <point x="146" y="138"/>
    </contour>
  </outline>
</glyph>
<glyph name="y.ss01" format="1">
  <advance width="465"/>
  <outline>
    <contour>
      <point x="414" y="414" type="curve"/>
      <point x="356" y="478" type="line"/>
      <point x="274" y="411" type="line"/>
      <point x="274" y="407" type="line"/>
      <point x="289" y="394"/>
      <point x="315" y="372"/>
      <point x="324" y="363" type="curve"/>
      <point x="327" y="308"/>
      <point x="321" y="179"/>
      <point x="310" y="113" type="curve"/>
      <point x="338" y="49"/>
      <point x="340" y="-17"/>
      <point x="335" y="-79" type="curve"/>
      <point x="304" y="-79"/>
      <point x="230" y="-53"/>
      <point x="183" y="-27" type="curve"/>
      <point x="175" y="-14"/>
      <point x="166" y="-1"/>
      <point x="176" y="14" type="curve"/>
      <point x="156" y="13" type="line"/>
      <point x="93" y="-79" type="line"/>
      <point x="154" y="-88"/>
      <point x="219" y="-121"/>
      <point x="286" y="-154" type="curve"/>
      <point x="333" y="-114"/>
      <point x="386" y="-79"/>
      <point x="420" y="-60" type="curve"/>
      <point x="400" y="36"/>
      <point x="397" y="299"/>
    </contour>
    <contour>
      <point x="15" y="402" type="line"/>
      <point x="15" y="399" type="line"/>
      <point x="35" y="381"/>
      <point x="64" y="363"/>
      <point x="71" y="352" type="curve"/>
      <point x="72" y="255"/>
      <point x="63" y="143"/>
      <point x="51" y="75" type="curve"/>
      <point x="94" y="49"/>
      <point x="155" y="6"/>
      <point x="166" y="-17" type="curve"/>
      <point x="212" y="28"/>
      <point x="258" y="58"/>
      <point x="297" y="79" type="curve"/>
      <point x="307" y="79"/>
      <point x="315" y="77"/>
      <point x="329" y="71" type="curve"/>
      <point x="316" y="121" type="line"/>
      <point x="286" y="103"/>
      <point x="241" y="84"/>
      <point x="209" y="75" type="curve"/>
      <point x="180" y="84"/>
      <point x="150" y="111"/>
      <point x="137" y="131" type="curve"/>
      <point x="144" y="363" type="line"/>
      <point x="144" y="378"/>
      <point x="160" y="384"/>
      <point x="166" y="393" type="curve"/>
      <point x="97" y="468" type="line"/>
    </contour>
  </outline>
</glyph>
